<mxfile host="app.diagrams.net" agent="Mozilla/5.0 (Windows NT 10.0; Win64; x64) AppleWebKit/537.36 (KHTML, like Gecko) Chrome/131.0.0.0 Safari/537.36" version="24.8.0">
  <diagram name="Page-1" id="nRpYfQl2P5jm4rqaYQXW">
    <mxGraphModel dx="1050" dy="522" grid="1" gridSize="10" guides="1" tooltips="1" connect="1" arrows="1" fold="1" page="1" pageScale="1" pageWidth="850" pageHeight="1100" math="0" shadow="0">
      <root>
        <mxCell id="0" />
        <mxCell id="1" parent="0" />
        <mxCell id="rZtnTcQlP8RqxVRW8Rxv-1" value="12" style="ellipse;whiteSpace=wrap;html=1;aspect=fixed;fillColor=#000000;strokeColor=#000000;fontColor=#FFFFFF;fontStyle=1" vertex="1" parent="1">
          <mxGeometry x="440" y="40" width="40" height="40" as="geometry" />
        </mxCell>
        <mxCell id="rZtnTcQlP8RqxVRW8Rxv-2" value="5" style="ellipse;whiteSpace=wrap;html=1;aspect=fixed;fontColor=#FFFFFF;fillColor=#000000;fontStyle=1" vertex="1" parent="1">
          <mxGeometry x="230" y="120" width="40" height="40" as="geometry" />
        </mxCell>
        <mxCell id="rZtnTcQlP8RqxVRW8Rxv-3" value="15" style="ellipse;whiteSpace=wrap;html=1;aspect=fixed;fontColor=#FFFFFF;fillColor=#000000;fontStyle=1" vertex="1" parent="1">
          <mxGeometry x="630" y="120" width="40" height="40" as="geometry" />
        </mxCell>
        <mxCell id="rZtnTcQlP8RqxVRW8Rxv-4" value="10" style="ellipse;whiteSpace=wrap;html=1;aspect=fixed;fontColor=#FFFFFF;fillColor=#FF0000;fontStyle=1" vertex="1" parent="1">
          <mxGeometry x="330" y="190" width="40" height="40" as="geometry" />
        </mxCell>
        <mxCell id="rZtnTcQlP8RqxVRW8Rxv-5" value="3" style="ellipse;whiteSpace=wrap;html=1;aspect=fixed;fontColor=#FFFFFF;fillColor=#000000;fontStyle=1" vertex="1" parent="1">
          <mxGeometry x="70" y="200" width="40" height="40" as="geometry" />
        </mxCell>
        <mxCell id="rZtnTcQlP8RqxVRW8Rxv-6" value="17" style="ellipse;whiteSpace=wrap;html=1;aspect=fixed;fontColor=#FFFFFF;fillColor=#000000;fontStyle=1" vertex="1" parent="1">
          <mxGeometry x="760" y="190" width="40" height="40" as="geometry" />
        </mxCell>
        <mxCell id="rZtnTcQlP8RqxVRW8Rxv-8" value="13" style="ellipse;whiteSpace=wrap;html=1;aspect=fixed;fontColor=#FFFFFF;fillColor=#000000;fontStyle=1" vertex="1" parent="1">
          <mxGeometry x="490" y="190" width="40" height="40" as="geometry" />
        </mxCell>
        <mxCell id="rZtnTcQlP8RqxVRW8Rxv-9" value="7" style="ellipse;whiteSpace=wrap;html=1;aspect=fixed;fontColor=#FFFFFF;fillColor=#000000;fontStyle=1" vertex="1" parent="1">
          <mxGeometry x="240" y="270" width="40" height="40" as="geometry" />
        </mxCell>
        <mxCell id="rZtnTcQlP8RqxVRW8Rxv-11" value="4" style="ellipse;whiteSpace=wrap;html=1;aspect=fixed;fontColor=#FFFFFF;fillColor=#FF0000;fontStyle=1" vertex="1" parent="1">
          <mxGeometry x="140" y="270" width="40" height="40" as="geometry" />
        </mxCell>
        <mxCell id="rZtnTcQlP8RqxVRW8Rxv-14" value="11" style="ellipse;whiteSpace=wrap;html=1;aspect=fixed;fontColor=#FFFFFF;fillColor=#000000;fontStyle=1" vertex="1" parent="1">
          <mxGeometry x="425" y="270" width="40" height="40" as="geometry" />
        </mxCell>
        <mxCell id="rZtnTcQlP8RqxVRW8Rxv-15" value="14" style="ellipse;whiteSpace=wrap;html=1;aspect=fixed;fontColor=#FFFFFF;fillColor=#FF0000;fontStyle=1" vertex="1" parent="1">
          <mxGeometry x="590" y="270" width="40" height="40" as="geometry" />
        </mxCell>
        <mxCell id="rZtnTcQlP8RqxVRW8Rxv-16" value="6" style="ellipse;whiteSpace=wrap;html=1;aspect=fixed;fontColor=#FFFFFF;fillColor=#FF0000;fontStyle=1" vertex="1" parent="1">
          <mxGeometry x="180" y="350" width="40" height="40" as="geometry" />
        </mxCell>
        <mxCell id="rZtnTcQlP8RqxVRW8Rxv-18" value="8" style="ellipse;whiteSpace=wrap;html=1;aspect=fixed;fontColor=#FFFFFF;fillColor=#FF0000;fontStyle=1" vertex="1" parent="1">
          <mxGeometry x="300" y="350" width="40" height="40" as="geometry" />
        </mxCell>
        <mxCell id="rZtnTcQlP8RqxVRW8Rxv-20" value="" style="endArrow=none;html=1;rounded=0;entryX=0;entryY=1;entryDx=0;entryDy=0;exitX=0.5;exitY=0;exitDx=0;exitDy=0;" edge="1" parent="1" source="rZtnTcQlP8RqxVRW8Rxv-2" target="rZtnTcQlP8RqxVRW8Rxv-1">
          <mxGeometry width="50" height="50" relative="1" as="geometry">
            <mxPoint x="520" y="280" as="sourcePoint" />
            <mxPoint x="570" y="230" as="targetPoint" />
          </mxGeometry>
        </mxCell>
        <mxCell id="rZtnTcQlP8RqxVRW8Rxv-21" value="" style="endArrow=none;html=1;rounded=0;entryX=1;entryY=1;entryDx=0;entryDy=0;exitX=0.5;exitY=0;exitDx=0;exitDy=0;" edge="1" parent="1" source="rZtnTcQlP8RqxVRW8Rxv-3" target="rZtnTcQlP8RqxVRW8Rxv-1">
          <mxGeometry width="50" height="50" relative="1" as="geometry">
            <mxPoint x="560" y="120" as="sourcePoint" />
            <mxPoint x="456" y="84" as="targetPoint" />
          </mxGeometry>
        </mxCell>
        <mxCell id="rZtnTcQlP8RqxVRW8Rxv-22" value="" style="endArrow=none;html=1;rounded=0;exitX=0.5;exitY=0;exitDx=0;exitDy=0;entryX=0;entryY=1;entryDx=0;entryDy=0;" edge="1" parent="1" source="rZtnTcQlP8RqxVRW8Rxv-5" target="rZtnTcQlP8RqxVRW8Rxv-2">
          <mxGeometry width="50" height="50" relative="1" as="geometry">
            <mxPoint x="164" y="190" as="sourcePoint" />
            <mxPoint x="237" y="170" as="targetPoint" />
          </mxGeometry>
        </mxCell>
        <mxCell id="rZtnTcQlP8RqxVRW8Rxv-23" value="" style="endArrow=none;html=1;rounded=0;entryX=1;entryY=1;entryDx=0;entryDy=0;exitX=0.5;exitY=0;exitDx=0;exitDy=0;" edge="1" parent="1" source="rZtnTcQlP8RqxVRW8Rxv-4" target="rZtnTcQlP8RqxVRW8Rxv-2">
          <mxGeometry width="50" height="50" relative="1" as="geometry">
            <mxPoint x="158" y="193" as="sourcePoint" />
            <mxPoint x="254" y="158" as="targetPoint" />
            <Array as="points">
              <mxPoint x="300" y="170" />
            </Array>
          </mxGeometry>
        </mxCell>
        <mxCell id="rZtnTcQlP8RqxVRW8Rxv-24" value="" style="endArrow=none;html=1;rounded=0;entryX=1;entryY=1;entryDx=0;entryDy=0;exitX=0.5;exitY=0;exitDx=0;exitDy=0;" edge="1" parent="1" source="rZtnTcQlP8RqxVRW8Rxv-6" target="rZtnTcQlP8RqxVRW8Rxv-3">
          <mxGeometry width="50" height="50" relative="1" as="geometry">
            <mxPoint x="742" y="190" as="sourcePoint" />
            <mxPoint x="670" y="138" as="targetPoint" />
          </mxGeometry>
        </mxCell>
        <mxCell id="rZtnTcQlP8RqxVRW8Rxv-25" value="" style="endArrow=none;html=1;rounded=0;entryX=1;entryY=1;entryDx=0;entryDy=0;exitX=0.5;exitY=0;exitDx=0;exitDy=0;" edge="1" parent="1" source="rZtnTcQlP8RqxVRW8Rxv-15" target="rZtnTcQlP8RqxVRW8Rxv-8">
          <mxGeometry width="50" height="50" relative="1" as="geometry">
            <mxPoint x="746" y="276" as="sourcePoint" />
            <mxPoint x="650" y="210" as="targetPoint" />
          </mxGeometry>
        </mxCell>
        <mxCell id="rZtnTcQlP8RqxVRW8Rxv-26" value="" style="endArrow=none;html=1;rounded=0;entryX=0;entryY=1;entryDx=0;entryDy=0;exitX=0.5;exitY=0;exitDx=0;exitDy=0;" edge="1" parent="1" source="rZtnTcQlP8RqxVRW8Rxv-8" target="rZtnTcQlP8RqxVRW8Rxv-3">
          <mxGeometry width="50" height="50" relative="1" as="geometry">
            <mxPoint x="505.85786437626894" y="205.85786437626894" as="sourcePoint" />
            <mxPoint x="525.8578643762689" y="154.14213562373106" as="targetPoint" />
          </mxGeometry>
        </mxCell>
        <mxCell id="rZtnTcQlP8RqxVRW8Rxv-27" value="" style="endArrow=none;html=1;rounded=0;entryX=1;entryY=1;entryDx=0;entryDy=0;exitX=0.5;exitY=0;exitDx=0;exitDy=0;" edge="1" parent="1" source="rZtnTcQlP8RqxVRW8Rxv-11" target="rZtnTcQlP8RqxVRW8Rxv-5">
          <mxGeometry width="50" height="50" relative="1" as="geometry">
            <mxPoint x="180" y="262" as="sourcePoint" />
            <mxPoint x="108" y="210" as="targetPoint" />
          </mxGeometry>
        </mxCell>
        <mxCell id="rZtnTcQlP8RqxVRW8Rxv-28" value="" style="endArrow=none;html=1;rounded=0;entryX=0;entryY=1;entryDx=0;entryDy=0;exitX=0.5;exitY=0;exitDx=0;exitDy=0;" edge="1" parent="1" source="rZtnTcQlP8RqxVRW8Rxv-9" target="rZtnTcQlP8RqxVRW8Rxv-4">
          <mxGeometry width="50" height="50" relative="1" as="geometry">
            <mxPoint x="330" y="292" as="sourcePoint" />
            <mxPoint x="350" y="230" as="targetPoint" />
          </mxGeometry>
        </mxCell>
        <mxCell id="rZtnTcQlP8RqxVRW8Rxv-29" value="" style="endArrow=none;html=1;rounded=0;entryX=1;entryY=1;entryDx=0;entryDy=0;exitX=0.5;exitY=0;exitDx=0;exitDy=0;" edge="1" parent="1" source="rZtnTcQlP8RqxVRW8Rxv-14" target="rZtnTcQlP8RqxVRW8Rxv-4">
          <mxGeometry width="50" height="50" relative="1" as="geometry">
            <mxPoint x="330" y="290" as="sourcePoint" />
            <mxPoint x="360" y="240" as="targetPoint" />
          </mxGeometry>
        </mxCell>
        <mxCell id="rZtnTcQlP8RqxVRW8Rxv-30" value="" style="endArrow=none;html=1;rounded=0;entryX=0.5;entryY=0;entryDx=0;entryDy=0;exitX=0;exitY=1;exitDx=0;exitDy=0;" edge="1" parent="1" source="rZtnTcQlP8RqxVRW8Rxv-9" target="rZtnTcQlP8RqxVRW8Rxv-16">
          <mxGeometry width="50" height="50" relative="1" as="geometry">
            <mxPoint x="270" y="280" as="sourcePoint" />
            <mxPoint x="300" y="230" as="targetPoint" />
          </mxGeometry>
        </mxCell>
        <mxCell id="rZtnTcQlP8RqxVRW8Rxv-31" value="" style="endArrow=none;html=1;rounded=0;entryX=0.5;entryY=0;entryDx=0;entryDy=0;exitX=1;exitY=1;exitDx=0;exitDy=0;" edge="1" parent="1" source="rZtnTcQlP8RqxVRW8Rxv-9" target="rZtnTcQlP8RqxVRW8Rxv-18">
          <mxGeometry width="50" height="50" relative="1" as="geometry">
            <mxPoint x="256" y="314" as="sourcePoint" />
            <mxPoint x="230" y="360" as="targetPoint" />
          </mxGeometry>
        </mxCell>
        <mxCell id="rZtnTcQlP8RqxVRW8Rxv-32" value="12" style="ellipse;whiteSpace=wrap;html=1;aspect=fixed;fillColor=#000000;strokeColor=#000000;fontColor=#FFFFFF;fontStyle=1" vertex="1" parent="1">
          <mxGeometry x="460" y="460" width="40" height="40" as="geometry" />
        </mxCell>
        <mxCell id="rZtnTcQlP8RqxVRW8Rxv-33" value="5" style="ellipse;whiteSpace=wrap;html=1;aspect=fixed;fontColor=#FFFFFF;fillColor=#000000;fontStyle=1" vertex="1" parent="1">
          <mxGeometry x="250" y="540" width="40" height="40" as="geometry" />
        </mxCell>
        <mxCell id="rZtnTcQlP8RqxVRW8Rxv-34" value="15" style="ellipse;whiteSpace=wrap;html=1;aspect=fixed;fontColor=#FFFFFF;fillColor=#000000;fontStyle=1" vertex="1" parent="1">
          <mxGeometry x="650" y="540" width="40" height="40" as="geometry" />
        </mxCell>
        <mxCell id="rZtnTcQlP8RqxVRW8Rxv-35" value="10" style="ellipse;whiteSpace=wrap;html=1;aspect=fixed;fontColor=#FFFFFF;fillColor=#FF0000;fontStyle=1" vertex="1" parent="1">
          <mxGeometry x="350" y="610" width="40" height="40" as="geometry" />
        </mxCell>
        <mxCell id="rZtnTcQlP8RqxVRW8Rxv-36" value="3" style="ellipse;whiteSpace=wrap;html=1;aspect=fixed;fontColor=#FFFFFF;fillColor=#000000;fontStyle=1" vertex="1" parent="1">
          <mxGeometry x="90" y="620" width="40" height="40" as="geometry" />
        </mxCell>
        <mxCell id="rZtnTcQlP8RqxVRW8Rxv-37" value="17" style="ellipse;whiteSpace=wrap;html=1;aspect=fixed;fontColor=#FFFFFF;fillColor=#000000;fontStyle=1" vertex="1" parent="1">
          <mxGeometry x="780" y="610" width="40" height="40" as="geometry" />
        </mxCell>
        <mxCell id="rZtnTcQlP8RqxVRW8Rxv-38" value="13" style="ellipse;whiteSpace=wrap;html=1;aspect=fixed;fontColor=#FFFFFF;fillColor=#000000;fontStyle=1" vertex="1" parent="1">
          <mxGeometry x="510" y="610" width="40" height="40" as="geometry" />
        </mxCell>
        <mxCell id="rZtnTcQlP8RqxVRW8Rxv-39" value="7" style="ellipse;whiteSpace=wrap;html=1;aspect=fixed;fontColor=#FFFFFF;fillColor=#000000;fontStyle=1" vertex="1" parent="1">
          <mxGeometry x="260" y="690" width="40" height="40" as="geometry" />
        </mxCell>
        <mxCell id="rZtnTcQlP8RqxVRW8Rxv-40" value="4" style="ellipse;whiteSpace=wrap;html=1;aspect=fixed;fontColor=#FFFFFF;fillColor=#FF0000;fontStyle=1" vertex="1" parent="1">
          <mxGeometry x="160" y="690" width="40" height="40" as="geometry" />
        </mxCell>
        <mxCell id="rZtnTcQlP8RqxVRW8Rxv-41" value="11" style="ellipse;whiteSpace=wrap;html=1;aspect=fixed;fontColor=#FFFFFF;fillColor=#000000;fontStyle=1" vertex="1" parent="1">
          <mxGeometry x="445" y="690" width="40" height="40" as="geometry" />
        </mxCell>
        <mxCell id="rZtnTcQlP8RqxVRW8Rxv-42" value="14" style="ellipse;whiteSpace=wrap;html=1;aspect=fixed;fontColor=#FFFFFF;fillColor=#FF0000;fontStyle=1" vertex="1" parent="1">
          <mxGeometry x="610" y="690" width="40" height="40" as="geometry" />
        </mxCell>
        <mxCell id="rZtnTcQlP8RqxVRW8Rxv-43" value="6" style="ellipse;whiteSpace=wrap;html=1;aspect=fixed;fontColor=#FFFFFF;fillColor=#FF0000;fontStyle=1" vertex="1" parent="1">
          <mxGeometry x="200" y="770" width="40" height="40" as="geometry" />
        </mxCell>
        <mxCell id="rZtnTcQlP8RqxVRW8Rxv-44" value="8" style="ellipse;whiteSpace=wrap;html=1;aspect=fixed;fontColor=#FFFFFF;fillColor=#FF0000;fontStyle=1" vertex="1" parent="1">
          <mxGeometry x="320" y="770" width="40" height="40" as="geometry" />
        </mxCell>
        <mxCell id="rZtnTcQlP8RqxVRW8Rxv-45" value="" style="endArrow=none;html=1;rounded=0;entryX=0;entryY=1;entryDx=0;entryDy=0;exitX=0.5;exitY=0;exitDx=0;exitDy=0;" edge="1" parent="1" source="rZtnTcQlP8RqxVRW8Rxv-33" target="rZtnTcQlP8RqxVRW8Rxv-32">
          <mxGeometry width="50" height="50" relative="1" as="geometry">
            <mxPoint x="540" y="700" as="sourcePoint" />
            <mxPoint x="590" y="650" as="targetPoint" />
          </mxGeometry>
        </mxCell>
        <mxCell id="rZtnTcQlP8RqxVRW8Rxv-46" value="" style="endArrow=none;html=1;rounded=0;entryX=1;entryY=1;entryDx=0;entryDy=0;exitX=0.5;exitY=0;exitDx=0;exitDy=0;" edge="1" parent="1" source="rZtnTcQlP8RqxVRW8Rxv-34" target="rZtnTcQlP8RqxVRW8Rxv-32">
          <mxGeometry width="50" height="50" relative="1" as="geometry">
            <mxPoint x="580" y="540" as="sourcePoint" />
            <mxPoint x="476" y="504" as="targetPoint" />
          </mxGeometry>
        </mxCell>
        <mxCell id="rZtnTcQlP8RqxVRW8Rxv-47" value="" style="endArrow=none;html=1;rounded=0;exitX=0.5;exitY=0;exitDx=0;exitDy=0;entryX=0;entryY=1;entryDx=0;entryDy=0;" edge="1" parent="1" source="rZtnTcQlP8RqxVRW8Rxv-36" target="rZtnTcQlP8RqxVRW8Rxv-33">
          <mxGeometry width="50" height="50" relative="1" as="geometry">
            <mxPoint x="184" y="610" as="sourcePoint" />
            <mxPoint x="257" y="590" as="targetPoint" />
          </mxGeometry>
        </mxCell>
        <mxCell id="rZtnTcQlP8RqxVRW8Rxv-48" value="" style="endArrow=none;html=1;rounded=0;entryX=1;entryY=1;entryDx=0;entryDy=0;exitX=0.5;exitY=0;exitDx=0;exitDy=0;" edge="1" parent="1" source="rZtnTcQlP8RqxVRW8Rxv-35" target="rZtnTcQlP8RqxVRW8Rxv-33">
          <mxGeometry width="50" height="50" relative="1" as="geometry">
            <mxPoint x="178" y="613" as="sourcePoint" />
            <mxPoint x="274" y="578" as="targetPoint" />
            <Array as="points">
              <mxPoint x="320" y="590" />
            </Array>
          </mxGeometry>
        </mxCell>
        <mxCell id="rZtnTcQlP8RqxVRW8Rxv-49" value="" style="endArrow=none;html=1;rounded=0;entryX=1;entryY=1;entryDx=0;entryDy=0;exitX=0.5;exitY=0;exitDx=0;exitDy=0;" edge="1" parent="1" source="rZtnTcQlP8RqxVRW8Rxv-37" target="rZtnTcQlP8RqxVRW8Rxv-34">
          <mxGeometry width="50" height="50" relative="1" as="geometry">
            <mxPoint x="762" y="610" as="sourcePoint" />
            <mxPoint x="690" y="558" as="targetPoint" />
          </mxGeometry>
        </mxCell>
        <mxCell id="rZtnTcQlP8RqxVRW8Rxv-50" value="" style="endArrow=none;html=1;rounded=0;entryX=1;entryY=1;entryDx=0;entryDy=0;exitX=0.5;exitY=0;exitDx=0;exitDy=0;" edge="1" parent="1" source="rZtnTcQlP8RqxVRW8Rxv-42" target="rZtnTcQlP8RqxVRW8Rxv-38">
          <mxGeometry width="50" height="50" relative="1" as="geometry">
            <mxPoint x="766" y="696" as="sourcePoint" />
            <mxPoint x="670" y="630" as="targetPoint" />
          </mxGeometry>
        </mxCell>
        <mxCell id="rZtnTcQlP8RqxVRW8Rxv-51" value="" style="endArrow=none;html=1;rounded=0;entryX=0;entryY=1;entryDx=0;entryDy=0;exitX=0.5;exitY=0;exitDx=0;exitDy=0;" edge="1" parent="1" source="rZtnTcQlP8RqxVRW8Rxv-38" target="rZtnTcQlP8RqxVRW8Rxv-34">
          <mxGeometry width="50" height="50" relative="1" as="geometry">
            <mxPoint x="525.8578643762689" y="625.8578643762689" as="sourcePoint" />
            <mxPoint x="545.8578643762689" y="574.1421356237311" as="targetPoint" />
          </mxGeometry>
        </mxCell>
        <mxCell id="rZtnTcQlP8RqxVRW8Rxv-52" value="" style="endArrow=none;html=1;rounded=0;entryX=1;entryY=1;entryDx=0;entryDy=0;exitX=0.5;exitY=0;exitDx=0;exitDy=0;" edge="1" parent="1" source="rZtnTcQlP8RqxVRW8Rxv-40" target="rZtnTcQlP8RqxVRW8Rxv-36">
          <mxGeometry width="50" height="50" relative="1" as="geometry">
            <mxPoint x="200" y="682" as="sourcePoint" />
            <mxPoint x="128" y="630" as="targetPoint" />
            <Array as="points">
              <mxPoint x="150" y="670" />
            </Array>
          </mxGeometry>
        </mxCell>
        <mxCell id="rZtnTcQlP8RqxVRW8Rxv-53" value="" style="endArrow=none;html=1;rounded=0;entryX=0;entryY=1;entryDx=0;entryDy=0;exitX=0.5;exitY=0;exitDx=0;exitDy=0;" edge="1" parent="1" source="rZtnTcQlP8RqxVRW8Rxv-39" target="rZtnTcQlP8RqxVRW8Rxv-35">
          <mxGeometry width="50" height="50" relative="1" as="geometry">
            <mxPoint x="350" y="712" as="sourcePoint" />
            <mxPoint x="370" y="650" as="targetPoint" />
          </mxGeometry>
        </mxCell>
        <mxCell id="rZtnTcQlP8RqxVRW8Rxv-54" value="" style="endArrow=none;html=1;rounded=0;entryX=1;entryY=1;entryDx=0;entryDy=0;exitX=0.5;exitY=0;exitDx=0;exitDy=0;" edge="1" parent="1" source="rZtnTcQlP8RqxVRW8Rxv-41" target="rZtnTcQlP8RqxVRW8Rxv-35">
          <mxGeometry width="50" height="50" relative="1" as="geometry">
            <mxPoint x="350" y="710" as="sourcePoint" />
            <mxPoint x="380" y="660" as="targetPoint" />
          </mxGeometry>
        </mxCell>
        <mxCell id="rZtnTcQlP8RqxVRW8Rxv-55" value="" style="endArrow=none;html=1;rounded=0;entryX=0.5;entryY=0;entryDx=0;entryDy=0;exitX=0;exitY=1;exitDx=0;exitDy=0;" edge="1" parent="1" source="rZtnTcQlP8RqxVRW8Rxv-39" target="rZtnTcQlP8RqxVRW8Rxv-43">
          <mxGeometry width="50" height="50" relative="1" as="geometry">
            <mxPoint x="290" y="700" as="sourcePoint" />
            <mxPoint x="320" y="650" as="targetPoint" />
          </mxGeometry>
        </mxCell>
        <mxCell id="rZtnTcQlP8RqxVRW8Rxv-56" value="" style="endArrow=none;html=1;rounded=0;entryX=0.5;entryY=0;entryDx=0;entryDy=0;exitX=1;exitY=1;exitDx=0;exitDy=0;" edge="1" parent="1" source="rZtnTcQlP8RqxVRW8Rxv-39" target="rZtnTcQlP8RqxVRW8Rxv-44">
          <mxGeometry width="50" height="50" relative="1" as="geometry">
            <mxPoint x="276" y="734" as="sourcePoint" />
            <mxPoint x="250" y="780" as="targetPoint" />
          </mxGeometry>
        </mxCell>
        <mxCell id="rZtnTcQlP8RqxVRW8Rxv-57" value="1" style="ellipse;whiteSpace=wrap;html=1;aspect=fixed;fontColor=#FFFFFF;fillColor=#FF0000;fontStyle=1" vertex="1" parent="1">
          <mxGeometry x="30" y="690" width="40" height="40" as="geometry" />
        </mxCell>
        <mxCell id="rZtnTcQlP8RqxVRW8Rxv-61" value="" style="endArrow=none;html=1;rounded=0;exitX=0.5;exitY=0;exitDx=0;exitDy=0;entryX=0;entryY=1;entryDx=0;entryDy=0;" edge="1" parent="1" source="rZtnTcQlP8RqxVRW8Rxv-57" target="rZtnTcQlP8RqxVRW8Rxv-36">
          <mxGeometry width="50" height="50" relative="1" as="geometry">
            <mxPoint x="-56" y="696" as="sourcePoint" />
            <mxPoint x="90" y="650" as="targetPoint" />
          </mxGeometry>
        </mxCell>
        <mxCell id="rZtnTcQlP8RqxVRW8Rxv-62" value="12" style="ellipse;whiteSpace=wrap;html=1;aspect=fixed;fillColor=#000000;strokeColor=#000000;fontColor=#FFFFFF;fontStyle=1" vertex="1" parent="1">
          <mxGeometry x="450" y="1140" width="40" height="40" as="geometry" />
        </mxCell>
        <mxCell id="rZtnTcQlP8RqxVRW8Rxv-63" value="5" style="ellipse;whiteSpace=wrap;html=1;aspect=fixed;fontColor=#FFFFFF;fillColor=#000000;fontStyle=1" vertex="1" parent="1">
          <mxGeometry x="240" y="1220" width="40" height="40" as="geometry" />
        </mxCell>
        <mxCell id="rZtnTcQlP8RqxVRW8Rxv-64" value="15" style="ellipse;whiteSpace=wrap;html=1;aspect=fixed;fontColor=#FFFFFF;fillColor=#000000;fontStyle=1" vertex="1" parent="1">
          <mxGeometry x="640" y="1220" width="40" height="40" as="geometry" />
        </mxCell>
        <mxCell id="rZtnTcQlP8RqxVRW8Rxv-65" value="10" style="ellipse;whiteSpace=wrap;html=1;aspect=fixed;fontColor=#FFFFFF;fillColor=#FF0000;fontStyle=1" vertex="1" parent="1">
          <mxGeometry x="340" y="1290" width="40" height="40" as="geometry" />
        </mxCell>
        <mxCell id="rZtnTcQlP8RqxVRW8Rxv-66" value="3" style="ellipse;whiteSpace=wrap;html=1;aspect=fixed;fontColor=#FFFFFF;fillColor=#000000;fontStyle=1" vertex="1" parent="1">
          <mxGeometry x="80" y="1300" width="40" height="40" as="geometry" />
        </mxCell>
        <mxCell id="rZtnTcQlP8RqxVRW8Rxv-67" value="17" style="ellipse;whiteSpace=wrap;html=1;aspect=fixed;fontColor=#FFFFFF;fillColor=#000000;fontStyle=1" vertex="1" parent="1">
          <mxGeometry x="770" y="1290" width="40" height="40" as="geometry" />
        </mxCell>
        <mxCell id="rZtnTcQlP8RqxVRW8Rxv-68" value="13" style="ellipse;whiteSpace=wrap;html=1;aspect=fixed;fontColor=#FFFFFF;fillColor=#000000;fontStyle=1" vertex="1" parent="1">
          <mxGeometry x="500" y="1290" width="40" height="40" as="geometry" />
        </mxCell>
        <mxCell id="rZtnTcQlP8RqxVRW8Rxv-69" value="7" style="ellipse;whiteSpace=wrap;html=1;aspect=fixed;fontColor=#FFFFFF;fillColor=#000000;fontStyle=1" vertex="1" parent="1">
          <mxGeometry x="250" y="1370" width="40" height="40" as="geometry" />
        </mxCell>
        <mxCell id="rZtnTcQlP8RqxVRW8Rxv-70" value="4" style="ellipse;whiteSpace=wrap;html=1;aspect=fixed;fontColor=#FFFFFF;fillColor=#FF0000;fontStyle=1" vertex="1" parent="1">
          <mxGeometry x="150" y="1370" width="40" height="40" as="geometry" />
        </mxCell>
        <mxCell id="rZtnTcQlP8RqxVRW8Rxv-71" value="11" style="ellipse;whiteSpace=wrap;html=1;aspect=fixed;fontColor=#FFFFFF;fillColor=#000000;fontStyle=1" vertex="1" parent="1">
          <mxGeometry x="435" y="1370" width="40" height="40" as="geometry" />
        </mxCell>
        <mxCell id="rZtnTcQlP8RqxVRW8Rxv-72" value="14" style="ellipse;whiteSpace=wrap;html=1;aspect=fixed;fontColor=#FFFFFF;fillColor=#FF0000;fontStyle=1" vertex="1" parent="1">
          <mxGeometry x="600" y="1370" width="40" height="40" as="geometry" />
        </mxCell>
        <mxCell id="rZtnTcQlP8RqxVRW8Rxv-73" value="6" style="ellipse;whiteSpace=wrap;html=1;aspect=fixed;fontColor=#FFFFFF;fillColor=#FF0000;fontStyle=1" vertex="1" parent="1">
          <mxGeometry x="190" y="1450" width="40" height="40" as="geometry" />
        </mxCell>
        <mxCell id="rZtnTcQlP8RqxVRW8Rxv-74" value="8" style="ellipse;whiteSpace=wrap;html=1;aspect=fixed;fontColor=#FFFFFF;fillColor=#FF0000;fontStyle=1" vertex="1" parent="1">
          <mxGeometry x="310" y="1450" width="40" height="40" as="geometry" />
        </mxCell>
        <mxCell id="rZtnTcQlP8RqxVRW8Rxv-75" value="" style="endArrow=none;html=1;rounded=0;entryX=0;entryY=1;entryDx=0;entryDy=0;exitX=0.5;exitY=0;exitDx=0;exitDy=0;" edge="1" parent="1" source="rZtnTcQlP8RqxVRW8Rxv-63" target="rZtnTcQlP8RqxVRW8Rxv-62">
          <mxGeometry width="50" height="50" relative="1" as="geometry">
            <mxPoint x="530" y="1380" as="sourcePoint" />
            <mxPoint x="580" y="1330" as="targetPoint" />
          </mxGeometry>
        </mxCell>
        <mxCell id="rZtnTcQlP8RqxVRW8Rxv-76" value="" style="endArrow=none;html=1;rounded=0;entryX=1;entryY=1;entryDx=0;entryDy=0;exitX=0.5;exitY=0;exitDx=0;exitDy=0;" edge="1" parent="1" source="rZtnTcQlP8RqxVRW8Rxv-64" target="rZtnTcQlP8RqxVRW8Rxv-62">
          <mxGeometry width="50" height="50" relative="1" as="geometry">
            <mxPoint x="570" y="1220" as="sourcePoint" />
            <mxPoint x="466" y="1184" as="targetPoint" />
          </mxGeometry>
        </mxCell>
        <mxCell id="rZtnTcQlP8RqxVRW8Rxv-77" value="" style="endArrow=none;html=1;rounded=0;exitX=0.5;exitY=0;exitDx=0;exitDy=0;entryX=0;entryY=1;entryDx=0;entryDy=0;" edge="1" parent="1" source="rZtnTcQlP8RqxVRW8Rxv-66" target="rZtnTcQlP8RqxVRW8Rxv-63">
          <mxGeometry width="50" height="50" relative="1" as="geometry">
            <mxPoint x="174" y="1290" as="sourcePoint" />
            <mxPoint x="247" y="1270" as="targetPoint" />
          </mxGeometry>
        </mxCell>
        <mxCell id="rZtnTcQlP8RqxVRW8Rxv-78" value="" style="endArrow=none;html=1;rounded=0;entryX=1;entryY=1;entryDx=0;entryDy=0;exitX=0.5;exitY=0;exitDx=0;exitDy=0;" edge="1" parent="1" source="rZtnTcQlP8RqxVRW8Rxv-65" target="rZtnTcQlP8RqxVRW8Rxv-63">
          <mxGeometry width="50" height="50" relative="1" as="geometry">
            <mxPoint x="168" y="1293" as="sourcePoint" />
            <mxPoint x="264" y="1258" as="targetPoint" />
            <Array as="points">
              <mxPoint x="310" y="1270" />
            </Array>
          </mxGeometry>
        </mxCell>
        <mxCell id="rZtnTcQlP8RqxVRW8Rxv-79" value="" style="endArrow=none;html=1;rounded=0;entryX=1;entryY=1;entryDx=0;entryDy=0;exitX=0.5;exitY=0;exitDx=0;exitDy=0;" edge="1" parent="1" source="rZtnTcQlP8RqxVRW8Rxv-67" target="rZtnTcQlP8RqxVRW8Rxv-64">
          <mxGeometry width="50" height="50" relative="1" as="geometry">
            <mxPoint x="752" y="1290" as="sourcePoint" />
            <mxPoint x="680" y="1238" as="targetPoint" />
          </mxGeometry>
        </mxCell>
        <mxCell id="rZtnTcQlP8RqxVRW8Rxv-80" value="" style="endArrow=none;html=1;rounded=0;entryX=1;entryY=1;entryDx=0;entryDy=0;exitX=0.5;exitY=0;exitDx=0;exitDy=0;" edge="1" parent="1" source="rZtnTcQlP8RqxVRW8Rxv-72" target="rZtnTcQlP8RqxVRW8Rxv-68">
          <mxGeometry width="50" height="50" relative="1" as="geometry">
            <mxPoint x="756" y="1376" as="sourcePoint" />
            <mxPoint x="660" y="1310" as="targetPoint" />
          </mxGeometry>
        </mxCell>
        <mxCell id="rZtnTcQlP8RqxVRW8Rxv-81" value="" style="endArrow=none;html=1;rounded=0;entryX=0;entryY=1;entryDx=0;entryDy=0;exitX=0.5;exitY=0;exitDx=0;exitDy=0;" edge="1" parent="1" source="rZtnTcQlP8RqxVRW8Rxv-68" target="rZtnTcQlP8RqxVRW8Rxv-64">
          <mxGeometry width="50" height="50" relative="1" as="geometry">
            <mxPoint x="515.8578643762689" y="1305.857864376269" as="sourcePoint" />
            <mxPoint x="535.8578643762689" y="1254.142135623731" as="targetPoint" />
          </mxGeometry>
        </mxCell>
        <mxCell id="rZtnTcQlP8RqxVRW8Rxv-82" value="" style="endArrow=none;html=1;rounded=0;entryX=1;entryY=1;entryDx=0;entryDy=0;exitX=0.5;exitY=0;exitDx=0;exitDy=0;" edge="1" parent="1" source="rZtnTcQlP8RqxVRW8Rxv-70" target="rZtnTcQlP8RqxVRW8Rxv-66">
          <mxGeometry width="50" height="50" relative="1" as="geometry">
            <mxPoint x="190" y="1362" as="sourcePoint" />
            <mxPoint x="118" y="1310" as="targetPoint" />
            <Array as="points">
              <mxPoint x="140" y="1350" />
            </Array>
          </mxGeometry>
        </mxCell>
        <mxCell id="rZtnTcQlP8RqxVRW8Rxv-83" value="" style="endArrow=none;html=1;rounded=0;entryX=0;entryY=1;entryDx=0;entryDy=0;exitX=0.5;exitY=0;exitDx=0;exitDy=0;" edge="1" parent="1" source="rZtnTcQlP8RqxVRW8Rxv-69" target="rZtnTcQlP8RqxVRW8Rxv-65">
          <mxGeometry width="50" height="50" relative="1" as="geometry">
            <mxPoint x="340" y="1392" as="sourcePoint" />
            <mxPoint x="360" y="1330" as="targetPoint" />
          </mxGeometry>
        </mxCell>
        <mxCell id="rZtnTcQlP8RqxVRW8Rxv-84" value="" style="endArrow=none;html=1;rounded=0;entryX=1;entryY=1;entryDx=0;entryDy=0;exitX=0.5;exitY=0;exitDx=0;exitDy=0;" edge="1" parent="1" source="rZtnTcQlP8RqxVRW8Rxv-71" target="rZtnTcQlP8RqxVRW8Rxv-65">
          <mxGeometry width="50" height="50" relative="1" as="geometry">
            <mxPoint x="340" y="1390" as="sourcePoint" />
            <mxPoint x="370" y="1340" as="targetPoint" />
          </mxGeometry>
        </mxCell>
        <mxCell id="rZtnTcQlP8RqxVRW8Rxv-85" value="" style="endArrow=none;html=1;rounded=0;entryX=0.5;entryY=0;entryDx=0;entryDy=0;exitX=0;exitY=1;exitDx=0;exitDy=0;" edge="1" parent="1" source="rZtnTcQlP8RqxVRW8Rxv-69" target="rZtnTcQlP8RqxVRW8Rxv-73">
          <mxGeometry width="50" height="50" relative="1" as="geometry">
            <mxPoint x="280" y="1380" as="sourcePoint" />
            <mxPoint x="310" y="1330" as="targetPoint" />
          </mxGeometry>
        </mxCell>
        <mxCell id="rZtnTcQlP8RqxVRW8Rxv-86" value="" style="endArrow=none;html=1;rounded=0;entryX=0.5;entryY=0;entryDx=0;entryDy=0;exitX=1;exitY=1;exitDx=0;exitDy=0;" edge="1" parent="1" source="rZtnTcQlP8RqxVRW8Rxv-69" target="rZtnTcQlP8RqxVRW8Rxv-74">
          <mxGeometry width="50" height="50" relative="1" as="geometry">
            <mxPoint x="266" y="1414" as="sourcePoint" />
            <mxPoint x="240" y="1460" as="targetPoint" />
          </mxGeometry>
        </mxCell>
        <mxCell id="rZtnTcQlP8RqxVRW8Rxv-87" value="1" style="ellipse;whiteSpace=wrap;html=1;aspect=fixed;fontColor=#FFFFFF;fillColor=#FF0000;fontStyle=1" vertex="1" parent="1">
          <mxGeometry x="20" y="1370" width="40" height="40" as="geometry" />
        </mxCell>
        <mxCell id="rZtnTcQlP8RqxVRW8Rxv-88" value="" style="endArrow=none;html=1;rounded=0;exitX=0.5;exitY=0;exitDx=0;exitDy=0;entryX=0;entryY=1;entryDx=0;entryDy=0;" edge="1" parent="1" source="rZtnTcQlP8RqxVRW8Rxv-87" target="rZtnTcQlP8RqxVRW8Rxv-66">
          <mxGeometry width="50" height="50" relative="1" as="geometry">
            <mxPoint x="-66" y="1376" as="sourcePoint" />
            <mxPoint x="80" y="1330" as="targetPoint" />
          </mxGeometry>
        </mxCell>
        <mxCell id="rZtnTcQlP8RqxVRW8Rxv-89" value="13.5" style="ellipse;whiteSpace=wrap;html=1;aspect=fixed;fontColor=#FFFFFF;fillColor=#FF0000;fontStyle=1" vertex="1" parent="1">
          <mxGeometry x="530" y="1430" width="40" height="40" as="geometry" />
        </mxCell>
        <mxCell id="rZtnTcQlP8RqxVRW8Rxv-90" value="" style="endArrow=none;html=1;rounded=0;entryX=0.5;entryY=0;entryDx=0;entryDy=0;exitX=0;exitY=1;exitDx=0;exitDy=0;" edge="1" parent="1" source="rZtnTcQlP8RqxVRW8Rxv-72" target="rZtnTcQlP8RqxVRW8Rxv-89">
          <mxGeometry width="50" height="50" relative="1" as="geometry">
            <mxPoint x="596" y="1406" as="sourcePoint" />
            <mxPoint x="510" y="1360" as="targetPoint" />
          </mxGeometry>
        </mxCell>
        <mxCell id="rZtnTcQlP8RqxVRW8Rxv-92" value="12" style="ellipse;whiteSpace=wrap;html=1;aspect=fixed;fillColor=#000000;strokeColor=#000000;fontColor=#FFFFFF;fontStyle=1" vertex="1" parent="1">
          <mxGeometry x="460" y="1580" width="40" height="40" as="geometry" />
        </mxCell>
        <mxCell id="rZtnTcQlP8RqxVRW8Rxv-93" value="5" style="ellipse;whiteSpace=wrap;html=1;aspect=fixed;fontColor=#FFFFFF;fillColor=#000000;fontStyle=1" vertex="1" parent="1">
          <mxGeometry x="250" y="1660" width="40" height="40" as="geometry" />
        </mxCell>
        <mxCell id="rZtnTcQlP8RqxVRW8Rxv-94" value="15" style="ellipse;whiteSpace=wrap;html=1;aspect=fixed;fontColor=#FFFFFF;fillColor=#000000;fontStyle=1" vertex="1" parent="1">
          <mxGeometry x="650" y="1660" width="40" height="40" as="geometry" />
        </mxCell>
        <mxCell id="rZtnTcQlP8RqxVRW8Rxv-95" value="10" style="ellipse;whiteSpace=wrap;html=1;aspect=fixed;fontColor=#FFFFFF;fillColor=#FF0000;fontStyle=1" vertex="1" parent="1">
          <mxGeometry x="350" y="1730" width="40" height="40" as="geometry" />
        </mxCell>
        <mxCell id="rZtnTcQlP8RqxVRW8Rxv-96" value="3" style="ellipse;whiteSpace=wrap;html=1;aspect=fixed;fontColor=#FFFFFF;fillColor=#000000;fontStyle=1" vertex="1" parent="1">
          <mxGeometry x="90" y="1740" width="40" height="40" as="geometry" />
        </mxCell>
        <mxCell id="rZtnTcQlP8RqxVRW8Rxv-97" value="17" style="ellipse;whiteSpace=wrap;html=1;aspect=fixed;fontColor=#FFFFFF;fillColor=#000000;fontStyle=1" vertex="1" parent="1">
          <mxGeometry x="740" y="1720" width="40" height="40" as="geometry" />
        </mxCell>
        <mxCell id="rZtnTcQlP8RqxVRW8Rxv-98" value="13" style="ellipse;whiteSpace=wrap;html=1;aspect=fixed;fontColor=#FFFFFF;fillColor=#FF0000;fontStyle=1" vertex="1" parent="1">
          <mxGeometry x="480" y="1770" width="40" height="40" as="geometry" />
        </mxCell>
        <mxCell id="rZtnTcQlP8RqxVRW8Rxv-99" value="7" style="ellipse;whiteSpace=wrap;html=1;aspect=fixed;fontColor=#FFFFFF;fillColor=#000000;fontStyle=1" vertex="1" parent="1">
          <mxGeometry x="260" y="1810" width="40" height="40" as="geometry" />
        </mxCell>
        <mxCell id="rZtnTcQlP8RqxVRW8Rxv-100" value="4" style="ellipse;whiteSpace=wrap;html=1;aspect=fixed;fontColor=#FFFFFF;fillColor=#FF0000;fontStyle=1" vertex="1" parent="1">
          <mxGeometry x="160" y="1810" width="40" height="40" as="geometry" />
        </mxCell>
        <mxCell id="rZtnTcQlP8RqxVRW8Rxv-101" value="11" style="ellipse;whiteSpace=wrap;html=1;aspect=fixed;fontColor=#FFFFFF;fillColor=#000000;fontStyle=1" vertex="1" parent="1">
          <mxGeometry x="445" y="1810" width="40" height="40" as="geometry" />
        </mxCell>
        <mxCell id="rZtnTcQlP8RqxVRW8Rxv-102" value="14" style="ellipse;whiteSpace=wrap;html=1;aspect=fixed;fontColor=#FFFFFF;fillColor=#FF0000;fontStyle=1" vertex="1" parent="1">
          <mxGeometry x="610" y="1770" width="40" height="40" as="geometry" />
        </mxCell>
        <mxCell id="rZtnTcQlP8RqxVRW8Rxv-103" value="6" style="ellipse;whiteSpace=wrap;html=1;aspect=fixed;fontColor=#FFFFFF;fillColor=#FF0000;fontStyle=1" vertex="1" parent="1">
          <mxGeometry x="200" y="1890" width="40" height="40" as="geometry" />
        </mxCell>
        <mxCell id="rZtnTcQlP8RqxVRW8Rxv-104" value="8" style="ellipse;whiteSpace=wrap;html=1;aspect=fixed;fontColor=#FFFFFF;fillColor=#FF0000;fontStyle=1" vertex="1" parent="1">
          <mxGeometry x="320" y="1890" width="40" height="40" as="geometry" />
        </mxCell>
        <mxCell id="rZtnTcQlP8RqxVRW8Rxv-105" value="" style="endArrow=none;html=1;rounded=0;entryX=0;entryY=1;entryDx=0;entryDy=0;exitX=0.5;exitY=0;exitDx=0;exitDy=0;" edge="1" parent="1" source="rZtnTcQlP8RqxVRW8Rxv-93" target="rZtnTcQlP8RqxVRW8Rxv-92">
          <mxGeometry width="50" height="50" relative="1" as="geometry">
            <mxPoint x="540" y="1820" as="sourcePoint" />
            <mxPoint x="590" y="1770" as="targetPoint" />
          </mxGeometry>
        </mxCell>
        <mxCell id="rZtnTcQlP8RqxVRW8Rxv-106" value="" style="endArrow=none;html=1;rounded=0;entryX=1;entryY=1;entryDx=0;entryDy=0;exitX=0.5;exitY=0;exitDx=0;exitDy=0;" edge="1" parent="1" source="rZtnTcQlP8RqxVRW8Rxv-94" target="rZtnTcQlP8RqxVRW8Rxv-92">
          <mxGeometry width="50" height="50" relative="1" as="geometry">
            <mxPoint x="580" y="1660" as="sourcePoint" />
            <mxPoint x="476" y="1624" as="targetPoint" />
          </mxGeometry>
        </mxCell>
        <mxCell id="rZtnTcQlP8RqxVRW8Rxv-107" value="" style="endArrow=none;html=1;rounded=0;exitX=0.5;exitY=0;exitDx=0;exitDy=0;entryX=0;entryY=1;entryDx=0;entryDy=0;" edge="1" parent="1" source="rZtnTcQlP8RqxVRW8Rxv-96" target="rZtnTcQlP8RqxVRW8Rxv-93">
          <mxGeometry width="50" height="50" relative="1" as="geometry">
            <mxPoint x="184" y="1730" as="sourcePoint" />
            <mxPoint x="257" y="1710" as="targetPoint" />
          </mxGeometry>
        </mxCell>
        <mxCell id="rZtnTcQlP8RqxVRW8Rxv-108" value="" style="endArrow=none;html=1;rounded=0;entryX=1;entryY=1;entryDx=0;entryDy=0;exitX=0.5;exitY=0;exitDx=0;exitDy=0;" edge="1" parent="1" source="rZtnTcQlP8RqxVRW8Rxv-95" target="rZtnTcQlP8RqxVRW8Rxv-93">
          <mxGeometry width="50" height="50" relative="1" as="geometry">
            <mxPoint x="178" y="1733" as="sourcePoint" />
            <mxPoint x="274" y="1698" as="targetPoint" />
            <Array as="points">
              <mxPoint x="320" y="1710" />
            </Array>
          </mxGeometry>
        </mxCell>
        <mxCell id="rZtnTcQlP8RqxVRW8Rxv-109" value="" style="endArrow=none;html=1;rounded=0;entryX=1;entryY=1;entryDx=0;entryDy=0;exitX=0.5;exitY=0;exitDx=0;exitDy=0;" edge="1" parent="1" source="rZtnTcQlP8RqxVRW8Rxv-97" target="rZtnTcQlP8RqxVRW8Rxv-94">
          <mxGeometry width="50" height="50" relative="1" as="geometry">
            <mxPoint x="762" y="1730" as="sourcePoint" />
            <mxPoint x="690" y="1678" as="targetPoint" />
          </mxGeometry>
        </mxCell>
        <mxCell id="rZtnTcQlP8RqxVRW8Rxv-110" value="" style="endArrow=none;html=1;rounded=0;entryX=0.5;entryY=0;entryDx=0;entryDy=0;exitX=0;exitY=1;exitDx=0;exitDy=0;" edge="1" parent="1" source="rZtnTcQlP8RqxVRW8Rxv-119" target="rZtnTcQlP8RqxVRW8Rxv-98">
          <mxGeometry width="50" height="50" relative="1" as="geometry">
            <mxPoint x="766" y="1816" as="sourcePoint" />
            <mxPoint x="670" y="1750" as="targetPoint" />
          </mxGeometry>
        </mxCell>
        <mxCell id="rZtnTcQlP8RqxVRW8Rxv-111" value="" style="endArrow=none;html=1;rounded=0;entryX=0;entryY=1;entryDx=0;entryDy=0;" edge="1" parent="1" target="rZtnTcQlP8RqxVRW8Rxv-94">
          <mxGeometry width="50" height="50" relative="1" as="geometry">
            <mxPoint x="570" y="1720" as="sourcePoint" />
            <mxPoint x="545.8578643762689" y="1694.142135623731" as="targetPoint" />
          </mxGeometry>
        </mxCell>
        <mxCell id="rZtnTcQlP8RqxVRW8Rxv-112" value="" style="endArrow=none;html=1;rounded=0;entryX=1;entryY=1;entryDx=0;entryDy=0;exitX=0.5;exitY=0;exitDx=0;exitDy=0;" edge="1" parent="1" source="rZtnTcQlP8RqxVRW8Rxv-100" target="rZtnTcQlP8RqxVRW8Rxv-96">
          <mxGeometry width="50" height="50" relative="1" as="geometry">
            <mxPoint x="200" y="1802" as="sourcePoint" />
            <mxPoint x="128" y="1750" as="targetPoint" />
            <Array as="points">
              <mxPoint x="150" y="1790" />
            </Array>
          </mxGeometry>
        </mxCell>
        <mxCell id="rZtnTcQlP8RqxVRW8Rxv-113" value="" style="endArrow=none;html=1;rounded=0;entryX=0;entryY=1;entryDx=0;entryDy=0;exitX=0.5;exitY=0;exitDx=0;exitDy=0;" edge="1" parent="1" source="rZtnTcQlP8RqxVRW8Rxv-99" target="rZtnTcQlP8RqxVRW8Rxv-95">
          <mxGeometry width="50" height="50" relative="1" as="geometry">
            <mxPoint x="350" y="1832" as="sourcePoint" />
            <mxPoint x="370" y="1770" as="targetPoint" />
          </mxGeometry>
        </mxCell>
        <mxCell id="rZtnTcQlP8RqxVRW8Rxv-114" value="" style="endArrow=none;html=1;rounded=0;entryX=1;entryY=1;entryDx=0;entryDy=0;exitX=0.5;exitY=0;exitDx=0;exitDy=0;" edge="1" parent="1" source="rZtnTcQlP8RqxVRW8Rxv-101" target="rZtnTcQlP8RqxVRW8Rxv-95">
          <mxGeometry width="50" height="50" relative="1" as="geometry">
            <mxPoint x="350" y="1830" as="sourcePoint" />
            <mxPoint x="380" y="1780" as="targetPoint" />
          </mxGeometry>
        </mxCell>
        <mxCell id="rZtnTcQlP8RqxVRW8Rxv-115" value="" style="endArrow=none;html=1;rounded=0;entryX=0.5;entryY=0;entryDx=0;entryDy=0;exitX=0;exitY=1;exitDx=0;exitDy=0;" edge="1" parent="1" source="rZtnTcQlP8RqxVRW8Rxv-99" target="rZtnTcQlP8RqxVRW8Rxv-103">
          <mxGeometry width="50" height="50" relative="1" as="geometry">
            <mxPoint x="290" y="1820" as="sourcePoint" />
            <mxPoint x="320" y="1770" as="targetPoint" />
          </mxGeometry>
        </mxCell>
        <mxCell id="rZtnTcQlP8RqxVRW8Rxv-116" value="" style="endArrow=none;html=1;rounded=0;entryX=0.5;entryY=0;entryDx=0;entryDy=0;exitX=1;exitY=1;exitDx=0;exitDy=0;" edge="1" parent="1" source="rZtnTcQlP8RqxVRW8Rxv-99" target="rZtnTcQlP8RqxVRW8Rxv-104">
          <mxGeometry width="50" height="50" relative="1" as="geometry">
            <mxPoint x="276" y="1854" as="sourcePoint" />
            <mxPoint x="250" y="1900" as="targetPoint" />
          </mxGeometry>
        </mxCell>
        <mxCell id="rZtnTcQlP8RqxVRW8Rxv-117" value="1" style="ellipse;whiteSpace=wrap;html=1;aspect=fixed;fontColor=#FFFFFF;fillColor=#FF0000;fontStyle=1" vertex="1" parent="1">
          <mxGeometry x="30" y="1810" width="40" height="40" as="geometry" />
        </mxCell>
        <mxCell id="rZtnTcQlP8RqxVRW8Rxv-118" value="" style="endArrow=none;html=1;rounded=0;exitX=0.5;exitY=0;exitDx=0;exitDy=0;entryX=0;entryY=1;entryDx=0;entryDy=0;" edge="1" parent="1" source="rZtnTcQlP8RqxVRW8Rxv-117" target="rZtnTcQlP8RqxVRW8Rxv-96">
          <mxGeometry width="50" height="50" relative="1" as="geometry">
            <mxPoint x="-56" y="1816" as="sourcePoint" />
            <mxPoint x="90" y="1770" as="targetPoint" />
          </mxGeometry>
        </mxCell>
        <mxCell id="rZtnTcQlP8RqxVRW8Rxv-119" value="13.5" style="ellipse;whiteSpace=wrap;html=1;aspect=fixed;fontColor=#FFFFFF;fillColor=#080808;fontStyle=1" vertex="1" parent="1">
          <mxGeometry x="540" y="1720" width="40" height="40" as="geometry" />
        </mxCell>
        <mxCell id="rZtnTcQlP8RqxVRW8Rxv-120" value="" style="endArrow=none;html=1;rounded=0;exitX=0.5;exitY=0;exitDx=0;exitDy=0;entryX=1;entryY=1;entryDx=0;entryDy=0;" edge="1" parent="1" source="rZtnTcQlP8RqxVRW8Rxv-102" target="rZtnTcQlP8RqxVRW8Rxv-119">
          <mxGeometry width="50" height="50" relative="1" as="geometry">
            <mxPoint x="606" y="1846" as="sourcePoint" />
            <mxPoint x="550" y="1840" as="targetPoint" />
          </mxGeometry>
        </mxCell>
        <mxCell id="rZtnTcQlP8RqxVRW8Rxv-121" value="12" style="ellipse;whiteSpace=wrap;html=1;aspect=fixed;fillColor=#000000;strokeColor=#000000;fontColor=#FFFFFF;fontStyle=1" vertex="1" parent="1">
          <mxGeometry x="500" y="2260" width="40" height="40" as="geometry" />
        </mxCell>
        <mxCell id="rZtnTcQlP8RqxVRW8Rxv-122" value="5" style="ellipse;whiteSpace=wrap;html=1;aspect=fixed;fontColor=#FFFFFF;fillColor=#000000;fontStyle=1" vertex="1" parent="1">
          <mxGeometry x="240" y="2330" width="40" height="40" as="geometry" />
        </mxCell>
        <mxCell id="rZtnTcQlP8RqxVRW8Rxv-123" value="15" style="ellipse;whiteSpace=wrap;html=1;aspect=fixed;fontColor=#FFFFFF;fillColor=#000000;fontStyle=1" vertex="1" parent="1">
          <mxGeometry x="690" y="2340" width="40" height="40" as="geometry" />
        </mxCell>
        <mxCell id="rZtnTcQlP8RqxVRW8Rxv-124" value="10" style="ellipse;whiteSpace=wrap;html=1;aspect=fixed;fontColor=#FFFFFF;fillColor=#FF0000;fontStyle=1" vertex="1" parent="1">
          <mxGeometry x="340" y="2400" width="40" height="40" as="geometry" />
        </mxCell>
        <mxCell id="rZtnTcQlP8RqxVRW8Rxv-125" value="3" style="ellipse;whiteSpace=wrap;html=1;aspect=fixed;fontColor=#FFFFFF;fillColor=#000000;fontStyle=1" vertex="1" parent="1">
          <mxGeometry x="80" y="2400" width="40" height="40" as="geometry" />
        </mxCell>
        <mxCell id="rZtnTcQlP8RqxVRW8Rxv-126" value="17" style="ellipse;whiteSpace=wrap;html=1;aspect=fixed;fontColor=#FFFFFF;fillColor=#000000;fontStyle=1" vertex="1" parent="1">
          <mxGeometry x="780" y="2400" width="40" height="40" as="geometry" />
        </mxCell>
        <mxCell id="rZtnTcQlP8RqxVRW8Rxv-127" value="13" style="ellipse;whiteSpace=wrap;html=1;aspect=fixed;fontColor=#FFFFFF;fillColor=#FF0000;fontStyle=1" vertex="1" parent="1">
          <mxGeometry x="520" y="2450" width="40" height="40" as="geometry" />
        </mxCell>
        <mxCell id="rZtnTcQlP8RqxVRW8Rxv-128" value="7" style="ellipse;whiteSpace=wrap;html=1;aspect=fixed;fontColor=#FFFFFF;fillColor=#000000;fontStyle=1" vertex="1" parent="1">
          <mxGeometry x="250" y="2470" width="40" height="40" as="geometry" />
        </mxCell>
        <mxCell id="rZtnTcQlP8RqxVRW8Rxv-129" value="4" style="ellipse;whiteSpace=wrap;html=1;aspect=fixed;fontColor=#FFFFFF;fillColor=#FF0000;fontStyle=1" vertex="1" parent="1">
          <mxGeometry x="150" y="2470" width="40" height="40" as="geometry" />
        </mxCell>
        <mxCell id="rZtnTcQlP8RqxVRW8Rxv-130" value="11" style="ellipse;whiteSpace=wrap;html=1;aspect=fixed;fontColor=#FFFFFF;fillColor=#000000;fontStyle=1" vertex="1" parent="1">
          <mxGeometry x="425" y="2480" width="40" height="40" as="geometry" />
        </mxCell>
        <mxCell id="rZtnTcQlP8RqxVRW8Rxv-131" value="14" style="ellipse;whiteSpace=wrap;html=1;aspect=fixed;fontColor=#FFFFFF;fillColor=#FF0000;fontStyle=1" vertex="1" parent="1">
          <mxGeometry x="650" y="2450" width="40" height="40" as="geometry" />
        </mxCell>
        <mxCell id="rZtnTcQlP8RqxVRW8Rxv-132" value="6" style="ellipse;whiteSpace=wrap;html=1;aspect=fixed;fontColor=#FFFFFF;fillColor=#FF0000;fontStyle=1" vertex="1" parent="1">
          <mxGeometry x="190" y="2550" width="40" height="40" as="geometry" />
        </mxCell>
        <mxCell id="rZtnTcQlP8RqxVRW8Rxv-133" value="8" style="ellipse;whiteSpace=wrap;html=1;aspect=fixed;fontColor=#FFFFFF;fillColor=#FF0000;fontStyle=1" vertex="1" parent="1">
          <mxGeometry x="310" y="2560" width="40" height="40" as="geometry" />
        </mxCell>
        <mxCell id="rZtnTcQlP8RqxVRW8Rxv-134" value="" style="endArrow=none;html=1;rounded=0;entryX=0;entryY=1;entryDx=0;entryDy=0;exitX=0.5;exitY=0;exitDx=0;exitDy=0;" edge="1" parent="1" source="rZtnTcQlP8RqxVRW8Rxv-122" target="rZtnTcQlP8RqxVRW8Rxv-121">
          <mxGeometry width="50" height="50" relative="1" as="geometry">
            <mxPoint x="580" y="2500" as="sourcePoint" />
            <mxPoint x="630" y="2450" as="targetPoint" />
          </mxGeometry>
        </mxCell>
        <mxCell id="rZtnTcQlP8RqxVRW8Rxv-135" value="" style="endArrow=none;html=1;rounded=0;entryX=1;entryY=1;entryDx=0;entryDy=0;exitX=0.5;exitY=0;exitDx=0;exitDy=0;" edge="1" parent="1" source="rZtnTcQlP8RqxVRW8Rxv-123" target="rZtnTcQlP8RqxVRW8Rxv-121">
          <mxGeometry width="50" height="50" relative="1" as="geometry">
            <mxPoint x="620" y="2340" as="sourcePoint" />
            <mxPoint x="516" y="2304" as="targetPoint" />
          </mxGeometry>
        </mxCell>
        <mxCell id="rZtnTcQlP8RqxVRW8Rxv-136" value="" style="endArrow=none;html=1;rounded=0;exitX=0.5;exitY=0;exitDx=0;exitDy=0;entryX=0;entryY=1;entryDx=0;entryDy=0;" edge="1" parent="1" source="rZtnTcQlP8RqxVRW8Rxv-125" target="rZtnTcQlP8RqxVRW8Rxv-122">
          <mxGeometry width="50" height="50" relative="1" as="geometry">
            <mxPoint x="174" y="2400" as="sourcePoint" />
            <mxPoint x="247" y="2380" as="targetPoint" />
          </mxGeometry>
        </mxCell>
        <mxCell id="rZtnTcQlP8RqxVRW8Rxv-137" value="" style="endArrow=none;html=1;rounded=0;entryX=1;entryY=1;entryDx=0;entryDy=0;exitX=0.5;exitY=0;exitDx=0;exitDy=0;" edge="1" parent="1" source="rZtnTcQlP8RqxVRW8Rxv-124" target="rZtnTcQlP8RqxVRW8Rxv-122">
          <mxGeometry width="50" height="50" relative="1" as="geometry">
            <mxPoint x="168" y="2403" as="sourcePoint" />
            <mxPoint x="264" y="2368" as="targetPoint" />
            <Array as="points">
              <mxPoint x="310" y="2380" />
            </Array>
          </mxGeometry>
        </mxCell>
        <mxCell id="rZtnTcQlP8RqxVRW8Rxv-138" value="" style="endArrow=none;html=1;rounded=0;entryX=1;entryY=1;entryDx=0;entryDy=0;exitX=0.5;exitY=0;exitDx=0;exitDy=0;" edge="1" parent="1" source="rZtnTcQlP8RqxVRW8Rxv-126" target="rZtnTcQlP8RqxVRW8Rxv-123">
          <mxGeometry width="50" height="50" relative="1" as="geometry">
            <mxPoint x="802" y="2410" as="sourcePoint" />
            <mxPoint x="730" y="2358" as="targetPoint" />
          </mxGeometry>
        </mxCell>
        <mxCell id="rZtnTcQlP8RqxVRW8Rxv-139" value="" style="endArrow=none;html=1;rounded=0;entryX=0.5;entryY=0;entryDx=0;entryDy=0;exitX=0;exitY=1;exitDx=0;exitDy=0;" edge="1" parent="1" source="rZtnTcQlP8RqxVRW8Rxv-148" target="rZtnTcQlP8RqxVRW8Rxv-127">
          <mxGeometry width="50" height="50" relative="1" as="geometry">
            <mxPoint x="806" y="2496" as="sourcePoint" />
            <mxPoint x="710" y="2430" as="targetPoint" />
          </mxGeometry>
        </mxCell>
        <mxCell id="rZtnTcQlP8RqxVRW8Rxv-140" value="" style="endArrow=none;html=1;rounded=0;entryX=0;entryY=1;entryDx=0;entryDy=0;" edge="1" parent="1" target="rZtnTcQlP8RqxVRW8Rxv-123">
          <mxGeometry width="50" height="50" relative="1" as="geometry">
            <mxPoint x="610" y="2400" as="sourcePoint" />
            <mxPoint x="585.8578643762689" y="2374.142135623731" as="targetPoint" />
          </mxGeometry>
        </mxCell>
        <mxCell id="rZtnTcQlP8RqxVRW8Rxv-141" value="" style="endArrow=none;html=1;rounded=0;entryX=1;entryY=1;entryDx=0;entryDy=0;exitX=0.5;exitY=0;exitDx=0;exitDy=0;" edge="1" parent="1" source="rZtnTcQlP8RqxVRW8Rxv-129" target="rZtnTcQlP8RqxVRW8Rxv-125">
          <mxGeometry width="50" height="50" relative="1" as="geometry">
            <mxPoint x="190" y="2462" as="sourcePoint" />
            <mxPoint x="118" y="2410" as="targetPoint" />
            <Array as="points">
              <mxPoint x="140" y="2450" />
            </Array>
          </mxGeometry>
        </mxCell>
        <mxCell id="rZtnTcQlP8RqxVRW8Rxv-142" value="" style="endArrow=none;html=1;rounded=0;entryX=0;entryY=1;entryDx=0;entryDy=0;exitX=0.5;exitY=0;exitDx=0;exitDy=0;" edge="1" parent="1" source="rZtnTcQlP8RqxVRW8Rxv-128" target="rZtnTcQlP8RqxVRW8Rxv-124">
          <mxGeometry width="50" height="50" relative="1" as="geometry">
            <mxPoint x="340" y="2502" as="sourcePoint" />
            <mxPoint x="360" y="2440" as="targetPoint" />
          </mxGeometry>
        </mxCell>
        <mxCell id="rZtnTcQlP8RqxVRW8Rxv-143" value="" style="endArrow=none;html=1;rounded=0;entryX=1;entryY=1;entryDx=0;entryDy=0;exitX=0.5;exitY=0;exitDx=0;exitDy=0;" edge="1" parent="1" source="rZtnTcQlP8RqxVRW8Rxv-130" target="rZtnTcQlP8RqxVRW8Rxv-124">
          <mxGeometry width="50" height="50" relative="1" as="geometry">
            <mxPoint x="390" y="2510" as="sourcePoint" />
            <mxPoint x="420" y="2460" as="targetPoint" />
          </mxGeometry>
        </mxCell>
        <mxCell id="rZtnTcQlP8RqxVRW8Rxv-144" value="" style="endArrow=none;html=1;rounded=0;entryX=0.5;entryY=0;entryDx=0;entryDy=0;exitX=0;exitY=1;exitDx=0;exitDy=0;" edge="1" parent="1" source="rZtnTcQlP8RqxVRW8Rxv-128" target="rZtnTcQlP8RqxVRW8Rxv-132">
          <mxGeometry width="50" height="50" relative="1" as="geometry">
            <mxPoint x="280" y="2480" as="sourcePoint" />
            <mxPoint x="310" y="2430" as="targetPoint" />
          </mxGeometry>
        </mxCell>
        <mxCell id="rZtnTcQlP8RqxVRW8Rxv-145" value="" style="endArrow=none;html=1;rounded=0;entryX=0.5;entryY=0;entryDx=0;entryDy=0;exitX=1;exitY=1;exitDx=0;exitDy=0;" edge="1" parent="1" source="rZtnTcQlP8RqxVRW8Rxv-128" target="rZtnTcQlP8RqxVRW8Rxv-133">
          <mxGeometry width="50" height="50" relative="1" as="geometry">
            <mxPoint x="266" y="2524" as="sourcePoint" />
            <mxPoint x="240" y="2570" as="targetPoint" />
          </mxGeometry>
        </mxCell>
        <mxCell id="rZtnTcQlP8RqxVRW8Rxv-146" value="1" style="ellipse;whiteSpace=wrap;html=1;aspect=fixed;fontColor=#FFFFFF;fillColor=#FF0000;fontStyle=1" vertex="1" parent="1">
          <mxGeometry x="20" y="2470" width="40" height="40" as="geometry" />
        </mxCell>
        <mxCell id="rZtnTcQlP8RqxVRW8Rxv-147" value="" style="endArrow=none;html=1;rounded=0;exitX=0.5;exitY=0;exitDx=0;exitDy=0;entryX=0;entryY=1;entryDx=0;entryDy=0;" edge="1" parent="1" source="rZtnTcQlP8RqxVRW8Rxv-146" target="rZtnTcQlP8RqxVRW8Rxv-125">
          <mxGeometry width="50" height="50" relative="1" as="geometry">
            <mxPoint x="-66" y="2476" as="sourcePoint" />
            <mxPoint x="80" y="2430" as="targetPoint" />
          </mxGeometry>
        </mxCell>
        <mxCell id="rZtnTcQlP8RqxVRW8Rxv-148" value="13.5" style="ellipse;whiteSpace=wrap;html=1;aspect=fixed;fontColor=#FFFFFF;fillColor=#080808;fontStyle=1" vertex="1" parent="1">
          <mxGeometry x="580" y="2400" width="40" height="40" as="geometry" />
        </mxCell>
        <mxCell id="rZtnTcQlP8RqxVRW8Rxv-149" value="" style="endArrow=none;html=1;rounded=0;exitX=0.5;exitY=0;exitDx=0;exitDy=0;entryX=1;entryY=1;entryDx=0;entryDy=0;" edge="1" parent="1" source="rZtnTcQlP8RqxVRW8Rxv-131" target="rZtnTcQlP8RqxVRW8Rxv-148">
          <mxGeometry width="50" height="50" relative="1" as="geometry">
            <mxPoint x="646" y="2526" as="sourcePoint" />
            <mxPoint x="590" y="2520" as="targetPoint" />
          </mxGeometry>
        </mxCell>
        <mxCell id="rZtnTcQlP8RqxVRW8Rxv-150" value="14.5" style="ellipse;whiteSpace=wrap;html=1;aspect=fixed;fontColor=#FFFFFF;fillColor=#FF0000;fontStyle=1" vertex="1" parent="1">
          <mxGeometry x="730" y="2510" width="40" height="40" as="geometry" />
        </mxCell>
        <mxCell id="rZtnTcQlP8RqxVRW8Rxv-152" value="" style="endArrow=none;html=1;rounded=0;exitX=0.5;exitY=0;exitDx=0;exitDy=0;entryX=1;entryY=1;entryDx=0;entryDy=0;" edge="1" parent="1" source="rZtnTcQlP8RqxVRW8Rxv-150" target="rZtnTcQlP8RqxVRW8Rxv-131">
          <mxGeometry width="50" height="50" relative="1" as="geometry">
            <mxPoint x="680" y="2460" as="sourcePoint" />
            <mxPoint x="624" y="2444" as="targetPoint" />
          </mxGeometry>
        </mxCell>
        <mxCell id="rZtnTcQlP8RqxVRW8Rxv-153" value="12" style="ellipse;whiteSpace=wrap;html=1;aspect=fixed;fillColor=#000000;strokeColor=#000000;fontColor=#FFFFFF;fontStyle=1" vertex="1" parent="1">
          <mxGeometry x="510" y="2680" width="40" height="40" as="geometry" />
        </mxCell>
        <mxCell id="rZtnTcQlP8RqxVRW8Rxv-154" value="5" style="ellipse;whiteSpace=wrap;html=1;aspect=fixed;fontColor=#FFFFFF;fillColor=#000000;fontStyle=1" vertex="1" parent="1">
          <mxGeometry x="250" y="2750" width="40" height="40" as="geometry" />
        </mxCell>
        <mxCell id="rZtnTcQlP8RqxVRW8Rxv-155" value="15" style="ellipse;whiteSpace=wrap;html=1;aspect=fixed;fontColor=#FFFFFF;fillColor=#000000;fontStyle=1" vertex="1" parent="1">
          <mxGeometry x="700" y="2760" width="40" height="40" as="geometry" />
        </mxCell>
        <mxCell id="rZtnTcQlP8RqxVRW8Rxv-156" value="10" style="ellipse;whiteSpace=wrap;html=1;aspect=fixed;fontColor=#FFFFFF;fillColor=#FF0000;fontStyle=1" vertex="1" parent="1">
          <mxGeometry x="350" y="2820" width="40" height="40" as="geometry" />
        </mxCell>
        <mxCell id="rZtnTcQlP8RqxVRW8Rxv-157" value="3" style="ellipse;whiteSpace=wrap;html=1;aspect=fixed;fontColor=#FFFFFF;fillColor=#000000;fontStyle=1" vertex="1" parent="1">
          <mxGeometry x="90" y="2820" width="40" height="40" as="geometry" />
        </mxCell>
        <mxCell id="rZtnTcQlP8RqxVRW8Rxv-158" value="17" style="ellipse;whiteSpace=wrap;html=1;aspect=fixed;fontColor=#FFFFFF;fillColor=#000000;fontStyle=1" vertex="1" parent="1">
          <mxGeometry x="790" y="2820" width="40" height="40" as="geometry" />
        </mxCell>
        <mxCell id="rZtnTcQlP8RqxVRW8Rxv-159" value="13" style="ellipse;whiteSpace=wrap;html=1;aspect=fixed;fontColor=#FFFFFF;fillColor=#000000;fontStyle=1" vertex="1" parent="1">
          <mxGeometry x="530" y="2870" width="40" height="40" as="geometry" />
        </mxCell>
        <mxCell id="rZtnTcQlP8RqxVRW8Rxv-160" value="7" style="ellipse;whiteSpace=wrap;html=1;aspect=fixed;fontColor=#FFFFFF;fillColor=#000000;fontStyle=1" vertex="1" parent="1">
          <mxGeometry x="260" y="2890" width="40" height="40" as="geometry" />
        </mxCell>
        <mxCell id="rZtnTcQlP8RqxVRW8Rxv-161" value="4" style="ellipse;whiteSpace=wrap;html=1;aspect=fixed;fontColor=#FFFFFF;fillColor=#FF0000;fontStyle=1" vertex="1" parent="1">
          <mxGeometry x="160" y="2890" width="40" height="40" as="geometry" />
        </mxCell>
        <mxCell id="rZtnTcQlP8RqxVRW8Rxv-162" value="11" style="ellipse;whiteSpace=wrap;html=1;aspect=fixed;fontColor=#FFFFFF;fillColor=#000000;fontStyle=1" vertex="1" parent="1">
          <mxGeometry x="435" y="2900" width="40" height="40" as="geometry" />
        </mxCell>
        <mxCell id="rZtnTcQlP8RqxVRW8Rxv-163" value="14" style="ellipse;whiteSpace=wrap;html=1;aspect=fixed;fontColor=#FFFFFF;fillColor=#000000;fontStyle=1" vertex="1" parent="1">
          <mxGeometry x="660" y="2870" width="40" height="40" as="geometry" />
        </mxCell>
        <mxCell id="rZtnTcQlP8RqxVRW8Rxv-164" value="6" style="ellipse;whiteSpace=wrap;html=1;aspect=fixed;fontColor=#FFFFFF;fillColor=#FF0000;fontStyle=1" vertex="1" parent="1">
          <mxGeometry x="200" y="2970" width="40" height="40" as="geometry" />
        </mxCell>
        <mxCell id="rZtnTcQlP8RqxVRW8Rxv-165" value="8" style="ellipse;whiteSpace=wrap;html=1;aspect=fixed;fontColor=#FFFFFF;fillColor=#FF0000;fontStyle=1" vertex="1" parent="1">
          <mxGeometry x="320" y="2980" width="40" height="40" as="geometry" />
        </mxCell>
        <mxCell id="rZtnTcQlP8RqxVRW8Rxv-166" value="" style="endArrow=none;html=1;rounded=0;entryX=0;entryY=1;entryDx=0;entryDy=0;exitX=0.5;exitY=0;exitDx=0;exitDy=0;" edge="1" parent="1" source="rZtnTcQlP8RqxVRW8Rxv-154" target="rZtnTcQlP8RqxVRW8Rxv-153">
          <mxGeometry width="50" height="50" relative="1" as="geometry">
            <mxPoint x="590" y="2920" as="sourcePoint" />
            <mxPoint x="640" y="2870" as="targetPoint" />
          </mxGeometry>
        </mxCell>
        <mxCell id="rZtnTcQlP8RqxVRW8Rxv-167" value="" style="endArrow=none;html=1;rounded=0;entryX=1;entryY=1;entryDx=0;entryDy=0;exitX=0.5;exitY=0;exitDx=0;exitDy=0;" edge="1" parent="1" source="rZtnTcQlP8RqxVRW8Rxv-155" target="rZtnTcQlP8RqxVRW8Rxv-153">
          <mxGeometry width="50" height="50" relative="1" as="geometry">
            <mxPoint x="630" y="2760" as="sourcePoint" />
            <mxPoint x="526" y="2724" as="targetPoint" />
          </mxGeometry>
        </mxCell>
        <mxCell id="rZtnTcQlP8RqxVRW8Rxv-168" value="" style="endArrow=none;html=1;rounded=0;exitX=0.5;exitY=0;exitDx=0;exitDy=0;entryX=0;entryY=1;entryDx=0;entryDy=0;" edge="1" parent="1" source="rZtnTcQlP8RqxVRW8Rxv-157" target="rZtnTcQlP8RqxVRW8Rxv-154">
          <mxGeometry width="50" height="50" relative="1" as="geometry">
            <mxPoint x="184" y="2820" as="sourcePoint" />
            <mxPoint x="257" y="2800" as="targetPoint" />
          </mxGeometry>
        </mxCell>
        <mxCell id="rZtnTcQlP8RqxVRW8Rxv-169" value="" style="endArrow=none;html=1;rounded=0;entryX=1;entryY=1;entryDx=0;entryDy=0;exitX=0.5;exitY=0;exitDx=0;exitDy=0;" edge="1" parent="1" source="rZtnTcQlP8RqxVRW8Rxv-156" target="rZtnTcQlP8RqxVRW8Rxv-154">
          <mxGeometry width="50" height="50" relative="1" as="geometry">
            <mxPoint x="178" y="2823" as="sourcePoint" />
            <mxPoint x="274" y="2788" as="targetPoint" />
            <Array as="points">
              <mxPoint x="320" y="2800" />
            </Array>
          </mxGeometry>
        </mxCell>
        <mxCell id="rZtnTcQlP8RqxVRW8Rxv-170" value="" style="endArrow=none;html=1;rounded=0;entryX=1;entryY=1;entryDx=0;entryDy=0;exitX=0.5;exitY=0;exitDx=0;exitDy=0;" edge="1" parent="1" source="rZtnTcQlP8RqxVRW8Rxv-158" target="rZtnTcQlP8RqxVRW8Rxv-155">
          <mxGeometry width="50" height="50" relative="1" as="geometry">
            <mxPoint x="812" y="2830" as="sourcePoint" />
            <mxPoint x="740" y="2778" as="targetPoint" />
          </mxGeometry>
        </mxCell>
        <mxCell id="rZtnTcQlP8RqxVRW8Rxv-171" value="" style="endArrow=none;html=1;rounded=0;entryX=0.5;entryY=0;entryDx=0;entryDy=0;exitX=0;exitY=1;exitDx=0;exitDy=0;" edge="1" parent="1" source="rZtnTcQlP8RqxVRW8Rxv-180" target="rZtnTcQlP8RqxVRW8Rxv-159">
          <mxGeometry width="50" height="50" relative="1" as="geometry">
            <mxPoint x="816" y="2916" as="sourcePoint" />
            <mxPoint x="720" y="2850" as="targetPoint" />
          </mxGeometry>
        </mxCell>
        <mxCell id="rZtnTcQlP8RqxVRW8Rxv-172" value="" style="endArrow=none;html=1;rounded=0;entryX=0;entryY=1;entryDx=0;entryDy=0;" edge="1" parent="1" target="rZtnTcQlP8RqxVRW8Rxv-155">
          <mxGeometry width="50" height="50" relative="1" as="geometry">
            <mxPoint x="620" y="2820" as="sourcePoint" />
            <mxPoint x="595.8578643762689" y="2794.142135623731" as="targetPoint" />
          </mxGeometry>
        </mxCell>
        <mxCell id="rZtnTcQlP8RqxVRW8Rxv-173" value="" style="endArrow=none;html=1;rounded=0;entryX=1;entryY=1;entryDx=0;entryDy=0;exitX=0.5;exitY=0;exitDx=0;exitDy=0;" edge="1" parent="1" source="rZtnTcQlP8RqxVRW8Rxv-161" target="rZtnTcQlP8RqxVRW8Rxv-157">
          <mxGeometry width="50" height="50" relative="1" as="geometry">
            <mxPoint x="200" y="2882" as="sourcePoint" />
            <mxPoint x="128" y="2830" as="targetPoint" />
            <Array as="points">
              <mxPoint x="150" y="2870" />
            </Array>
          </mxGeometry>
        </mxCell>
        <mxCell id="rZtnTcQlP8RqxVRW8Rxv-174" value="" style="endArrow=none;html=1;rounded=0;entryX=0;entryY=1;entryDx=0;entryDy=0;exitX=0.5;exitY=0;exitDx=0;exitDy=0;" edge="1" parent="1" source="rZtnTcQlP8RqxVRW8Rxv-160" target="rZtnTcQlP8RqxVRW8Rxv-156">
          <mxGeometry width="50" height="50" relative="1" as="geometry">
            <mxPoint x="350" y="2922" as="sourcePoint" />
            <mxPoint x="370" y="2860" as="targetPoint" />
          </mxGeometry>
        </mxCell>
        <mxCell id="rZtnTcQlP8RqxVRW8Rxv-175" value="" style="endArrow=none;html=1;rounded=0;entryX=1;entryY=1;entryDx=0;entryDy=0;exitX=0.5;exitY=0;exitDx=0;exitDy=0;" edge="1" parent="1" source="rZtnTcQlP8RqxVRW8Rxv-162" target="rZtnTcQlP8RqxVRW8Rxv-156">
          <mxGeometry width="50" height="50" relative="1" as="geometry">
            <mxPoint x="400" y="2930" as="sourcePoint" />
            <mxPoint x="430" y="2880" as="targetPoint" />
          </mxGeometry>
        </mxCell>
        <mxCell id="rZtnTcQlP8RqxVRW8Rxv-176" value="" style="endArrow=none;html=1;rounded=0;entryX=0.5;entryY=0;entryDx=0;entryDy=0;exitX=0;exitY=1;exitDx=0;exitDy=0;" edge="1" parent="1" source="rZtnTcQlP8RqxVRW8Rxv-160" target="rZtnTcQlP8RqxVRW8Rxv-164">
          <mxGeometry width="50" height="50" relative="1" as="geometry">
            <mxPoint x="290" y="2900" as="sourcePoint" />
            <mxPoint x="320" y="2850" as="targetPoint" />
          </mxGeometry>
        </mxCell>
        <mxCell id="rZtnTcQlP8RqxVRW8Rxv-177" value="" style="endArrow=none;html=1;rounded=0;entryX=0.5;entryY=0;entryDx=0;entryDy=0;exitX=1;exitY=1;exitDx=0;exitDy=0;" edge="1" parent="1" source="rZtnTcQlP8RqxVRW8Rxv-160" target="rZtnTcQlP8RqxVRW8Rxv-165">
          <mxGeometry width="50" height="50" relative="1" as="geometry">
            <mxPoint x="276" y="2944" as="sourcePoint" />
            <mxPoint x="250" y="2990" as="targetPoint" />
          </mxGeometry>
        </mxCell>
        <mxCell id="rZtnTcQlP8RqxVRW8Rxv-178" value="1" style="ellipse;whiteSpace=wrap;html=1;aspect=fixed;fontColor=#FFFFFF;fillColor=#FF0000;fontStyle=1" vertex="1" parent="1">
          <mxGeometry x="30" y="2890" width="40" height="40" as="geometry" />
        </mxCell>
        <mxCell id="rZtnTcQlP8RqxVRW8Rxv-179" value="" style="endArrow=none;html=1;rounded=0;exitX=0.5;exitY=0;exitDx=0;exitDy=0;entryX=0;entryY=1;entryDx=0;entryDy=0;" edge="1" parent="1" source="rZtnTcQlP8RqxVRW8Rxv-178" target="rZtnTcQlP8RqxVRW8Rxv-157">
          <mxGeometry width="50" height="50" relative="1" as="geometry">
            <mxPoint x="-56" y="2896" as="sourcePoint" />
            <mxPoint x="90" y="2850" as="targetPoint" />
          </mxGeometry>
        </mxCell>
        <mxCell id="rZtnTcQlP8RqxVRW8Rxv-180" value="13.5" style="ellipse;whiteSpace=wrap;html=1;aspect=fixed;fontColor=#FFFFFF;fillColor=#FF0000;fontStyle=1" vertex="1" parent="1">
          <mxGeometry x="590" y="2820" width="40" height="40" as="geometry" />
        </mxCell>
        <mxCell id="rZtnTcQlP8RqxVRW8Rxv-181" value="" style="endArrow=none;html=1;rounded=0;exitX=0.5;exitY=0;exitDx=0;exitDy=0;entryX=1;entryY=1;entryDx=0;entryDy=0;" edge="1" parent="1" source="rZtnTcQlP8RqxVRW8Rxv-163" target="rZtnTcQlP8RqxVRW8Rxv-180">
          <mxGeometry width="50" height="50" relative="1" as="geometry">
            <mxPoint x="656" y="2946" as="sourcePoint" />
            <mxPoint x="600" y="2940" as="targetPoint" />
          </mxGeometry>
        </mxCell>
        <mxCell id="rZtnTcQlP8RqxVRW8Rxv-182" value="14.5" style="ellipse;whiteSpace=wrap;html=1;aspect=fixed;fontColor=#FFFFFF;fillColor=#FF0000;fontStyle=1" vertex="1" parent="1">
          <mxGeometry x="740" y="2930" width="40" height="40" as="geometry" />
        </mxCell>
        <mxCell id="rZtnTcQlP8RqxVRW8Rxv-183" value="" style="endArrow=none;html=1;rounded=0;exitX=0.5;exitY=0;exitDx=0;exitDy=0;entryX=1;entryY=1;entryDx=0;entryDy=0;" edge="1" parent="1" source="rZtnTcQlP8RqxVRW8Rxv-182" target="rZtnTcQlP8RqxVRW8Rxv-163">
          <mxGeometry width="50" height="50" relative="1" as="geometry">
            <mxPoint x="690" y="2880" as="sourcePoint" />
            <mxPoint x="634" y="2864" as="targetPoint" />
          </mxGeometry>
        </mxCell>
        <mxCell id="rZtnTcQlP8RqxVRW8Rxv-184" value="12" style="ellipse;whiteSpace=wrap;html=1;aspect=fixed;fillColor=#000000;strokeColor=#000000;fontColor=#FFFFFF;fontStyle=1" vertex="1" parent="1">
          <mxGeometry x="500" y="3360" width="40" height="40" as="geometry" />
        </mxCell>
        <mxCell id="rZtnTcQlP8RqxVRW8Rxv-185" value="5" style="ellipse;whiteSpace=wrap;html=1;aspect=fixed;fontColor=#FFFFFF;fillColor=#000000;fontStyle=1" vertex="1" parent="1">
          <mxGeometry x="240" y="3430" width="40" height="40" as="geometry" />
        </mxCell>
        <mxCell id="rZtnTcQlP8RqxVRW8Rxv-186" value="15" style="ellipse;whiteSpace=wrap;html=1;aspect=fixed;fontColor=#FFFFFF;fillColor=#000000;fontStyle=1" vertex="1" parent="1">
          <mxGeometry x="690" y="3440" width="40" height="40" as="geometry" />
        </mxCell>
        <mxCell id="rZtnTcQlP8RqxVRW8Rxv-187" value="10" style="ellipse;whiteSpace=wrap;html=1;aspect=fixed;fontColor=#FFFFFF;fillColor=#FF0000;fontStyle=1" vertex="1" parent="1">
          <mxGeometry x="340" y="3500" width="40" height="40" as="geometry" />
        </mxCell>
        <mxCell id="rZtnTcQlP8RqxVRW8Rxv-188" value="3" style="ellipse;whiteSpace=wrap;html=1;aspect=fixed;fontColor=#FFFFFF;fillColor=#000000;fontStyle=1" vertex="1" parent="1">
          <mxGeometry x="80" y="3500" width="40" height="40" as="geometry" />
        </mxCell>
        <mxCell id="rZtnTcQlP8RqxVRW8Rxv-189" value="17" style="ellipse;whiteSpace=wrap;html=1;aspect=fixed;fontColor=#FFFFFF;fillColor=#000000;fontStyle=1" vertex="1" parent="1">
          <mxGeometry x="780" y="3500" width="40" height="40" as="geometry" />
        </mxCell>
        <mxCell id="rZtnTcQlP8RqxVRW8Rxv-190" value="13" style="ellipse;whiteSpace=wrap;html=1;aspect=fixed;fontColor=#FFFFFF;fillColor=#000000;fontStyle=1" vertex="1" parent="1">
          <mxGeometry x="520" y="3550" width="40" height="40" as="geometry" />
        </mxCell>
        <mxCell id="rZtnTcQlP8RqxVRW8Rxv-191" value="7" style="ellipse;whiteSpace=wrap;html=1;aspect=fixed;fontColor=#FFFFFF;fillColor=#000000;fontStyle=1" vertex="1" parent="1">
          <mxGeometry x="250" y="3570" width="40" height="40" as="geometry" />
        </mxCell>
        <mxCell id="rZtnTcQlP8RqxVRW8Rxv-192" value="4" style="ellipse;whiteSpace=wrap;html=1;aspect=fixed;fontColor=#FFFFFF;fillColor=#FF0000;fontStyle=1" vertex="1" parent="1">
          <mxGeometry x="150" y="3570" width="40" height="40" as="geometry" />
        </mxCell>
        <mxCell id="rZtnTcQlP8RqxVRW8Rxv-193" value="11" style="ellipse;whiteSpace=wrap;html=1;aspect=fixed;fontColor=#FFFFFF;fillColor=#000000;fontStyle=1" vertex="1" parent="1">
          <mxGeometry x="425" y="3580" width="40" height="40" as="geometry" />
        </mxCell>
        <mxCell id="rZtnTcQlP8RqxVRW8Rxv-194" value="14" style="ellipse;whiteSpace=wrap;html=1;aspect=fixed;fontColor=#FFFFFF;fillColor=#000000;fontStyle=1" vertex="1" parent="1">
          <mxGeometry x="650" y="3550" width="40" height="40" as="geometry" />
        </mxCell>
        <mxCell id="rZtnTcQlP8RqxVRW8Rxv-195" value="6" style="ellipse;whiteSpace=wrap;html=1;aspect=fixed;fontColor=#FFFFFF;fillColor=#FF0000;fontStyle=1" vertex="1" parent="1">
          <mxGeometry x="190" y="3650" width="40" height="40" as="geometry" />
        </mxCell>
        <mxCell id="rZtnTcQlP8RqxVRW8Rxv-196" value="8" style="ellipse;whiteSpace=wrap;html=1;aspect=fixed;fontColor=#FFFFFF;fillColor=#FF0000;fontStyle=1" vertex="1" parent="1">
          <mxGeometry x="310" y="3660" width="40" height="40" as="geometry" />
        </mxCell>
        <mxCell id="rZtnTcQlP8RqxVRW8Rxv-197" value="" style="endArrow=none;html=1;rounded=0;entryX=0;entryY=1;entryDx=0;entryDy=0;exitX=0.5;exitY=0;exitDx=0;exitDy=0;" edge="1" parent="1" source="rZtnTcQlP8RqxVRW8Rxv-185" target="rZtnTcQlP8RqxVRW8Rxv-184">
          <mxGeometry width="50" height="50" relative="1" as="geometry">
            <mxPoint x="580" y="3600" as="sourcePoint" />
            <mxPoint x="630" y="3550" as="targetPoint" />
          </mxGeometry>
        </mxCell>
        <mxCell id="rZtnTcQlP8RqxVRW8Rxv-198" value="" style="endArrow=none;html=1;rounded=0;entryX=1;entryY=1;entryDx=0;entryDy=0;exitX=0.5;exitY=0;exitDx=0;exitDy=0;" edge="1" parent="1" source="rZtnTcQlP8RqxVRW8Rxv-186" target="rZtnTcQlP8RqxVRW8Rxv-184">
          <mxGeometry width="50" height="50" relative="1" as="geometry">
            <mxPoint x="620" y="3440" as="sourcePoint" />
            <mxPoint x="516" y="3404" as="targetPoint" />
          </mxGeometry>
        </mxCell>
        <mxCell id="rZtnTcQlP8RqxVRW8Rxv-199" value="" style="endArrow=none;html=1;rounded=0;exitX=0.5;exitY=0;exitDx=0;exitDy=0;entryX=0;entryY=1;entryDx=0;entryDy=0;" edge="1" parent="1" source="rZtnTcQlP8RqxVRW8Rxv-188" target="rZtnTcQlP8RqxVRW8Rxv-185">
          <mxGeometry width="50" height="50" relative="1" as="geometry">
            <mxPoint x="174" y="3500" as="sourcePoint" />
            <mxPoint x="247" y="3480" as="targetPoint" />
          </mxGeometry>
        </mxCell>
        <mxCell id="rZtnTcQlP8RqxVRW8Rxv-200" value="" style="endArrow=none;html=1;rounded=0;entryX=1;entryY=1;entryDx=0;entryDy=0;exitX=0.5;exitY=0;exitDx=0;exitDy=0;" edge="1" parent="1" source="rZtnTcQlP8RqxVRW8Rxv-187" target="rZtnTcQlP8RqxVRW8Rxv-185">
          <mxGeometry width="50" height="50" relative="1" as="geometry">
            <mxPoint x="168" y="3503" as="sourcePoint" />
            <mxPoint x="264" y="3468" as="targetPoint" />
            <Array as="points">
              <mxPoint x="310" y="3480" />
            </Array>
          </mxGeometry>
        </mxCell>
        <mxCell id="rZtnTcQlP8RqxVRW8Rxv-201" value="" style="endArrow=none;html=1;rounded=0;entryX=1;entryY=1;entryDx=0;entryDy=0;exitX=0.5;exitY=0;exitDx=0;exitDy=0;" edge="1" parent="1" source="rZtnTcQlP8RqxVRW8Rxv-189" target="rZtnTcQlP8RqxVRW8Rxv-186">
          <mxGeometry width="50" height="50" relative="1" as="geometry">
            <mxPoint x="802" y="3510" as="sourcePoint" />
            <mxPoint x="730" y="3458" as="targetPoint" />
          </mxGeometry>
        </mxCell>
        <mxCell id="rZtnTcQlP8RqxVRW8Rxv-202" value="" style="endArrow=none;html=1;rounded=0;entryX=0.5;entryY=0;entryDx=0;entryDy=0;exitX=0;exitY=1;exitDx=0;exitDy=0;" edge="1" parent="1" source="rZtnTcQlP8RqxVRW8Rxv-211" target="rZtnTcQlP8RqxVRW8Rxv-190">
          <mxGeometry width="50" height="50" relative="1" as="geometry">
            <mxPoint x="806" y="3596" as="sourcePoint" />
            <mxPoint x="710" y="3530" as="targetPoint" />
          </mxGeometry>
        </mxCell>
        <mxCell id="rZtnTcQlP8RqxVRW8Rxv-203" value="" style="endArrow=none;html=1;rounded=0;entryX=0;entryY=1;entryDx=0;entryDy=0;exitX=0.5;exitY=0;exitDx=0;exitDy=0;" edge="1" parent="1" target="rZtnTcQlP8RqxVRW8Rxv-186" source="rZtnTcQlP8RqxVRW8Rxv-211">
          <mxGeometry width="50" height="50" relative="1" as="geometry">
            <mxPoint x="610" y="3500" as="sourcePoint" />
            <mxPoint x="585.8578643762689" y="3474.142135623731" as="targetPoint" />
          </mxGeometry>
        </mxCell>
        <mxCell id="rZtnTcQlP8RqxVRW8Rxv-204" value="" style="endArrow=none;html=1;rounded=0;entryX=1;entryY=1;entryDx=0;entryDy=0;exitX=0.5;exitY=0;exitDx=0;exitDy=0;" edge="1" parent="1" source="rZtnTcQlP8RqxVRW8Rxv-192" target="rZtnTcQlP8RqxVRW8Rxv-188">
          <mxGeometry width="50" height="50" relative="1" as="geometry">
            <mxPoint x="190" y="3562" as="sourcePoint" />
            <mxPoint x="118" y="3510" as="targetPoint" />
            <Array as="points">
              <mxPoint x="140" y="3550" />
            </Array>
          </mxGeometry>
        </mxCell>
        <mxCell id="rZtnTcQlP8RqxVRW8Rxv-205" value="" style="endArrow=none;html=1;rounded=0;entryX=0;entryY=1;entryDx=0;entryDy=0;exitX=0.5;exitY=0;exitDx=0;exitDy=0;" edge="1" parent="1" source="rZtnTcQlP8RqxVRW8Rxv-191" target="rZtnTcQlP8RqxVRW8Rxv-187">
          <mxGeometry width="50" height="50" relative="1" as="geometry">
            <mxPoint x="340" y="3602" as="sourcePoint" />
            <mxPoint x="360" y="3540" as="targetPoint" />
          </mxGeometry>
        </mxCell>
        <mxCell id="rZtnTcQlP8RqxVRW8Rxv-206" value="" style="endArrow=none;html=1;rounded=0;entryX=1;entryY=1;entryDx=0;entryDy=0;exitX=0.5;exitY=0;exitDx=0;exitDy=0;" edge="1" parent="1" source="rZtnTcQlP8RqxVRW8Rxv-193" target="rZtnTcQlP8RqxVRW8Rxv-187">
          <mxGeometry width="50" height="50" relative="1" as="geometry">
            <mxPoint x="390" y="3610" as="sourcePoint" />
            <mxPoint x="420" y="3560" as="targetPoint" />
          </mxGeometry>
        </mxCell>
        <mxCell id="rZtnTcQlP8RqxVRW8Rxv-207" value="" style="endArrow=none;html=1;rounded=0;entryX=0.5;entryY=0;entryDx=0;entryDy=0;exitX=0;exitY=1;exitDx=0;exitDy=0;" edge="1" parent="1" source="rZtnTcQlP8RqxVRW8Rxv-191" target="rZtnTcQlP8RqxVRW8Rxv-195">
          <mxGeometry width="50" height="50" relative="1" as="geometry">
            <mxPoint x="280" y="3580" as="sourcePoint" />
            <mxPoint x="310" y="3530" as="targetPoint" />
          </mxGeometry>
        </mxCell>
        <mxCell id="rZtnTcQlP8RqxVRW8Rxv-208" value="" style="endArrow=none;html=1;rounded=0;entryX=0.5;entryY=0;entryDx=0;entryDy=0;exitX=1;exitY=1;exitDx=0;exitDy=0;" edge="1" parent="1" source="rZtnTcQlP8RqxVRW8Rxv-191" target="rZtnTcQlP8RqxVRW8Rxv-196">
          <mxGeometry width="50" height="50" relative="1" as="geometry">
            <mxPoint x="266" y="3624" as="sourcePoint" />
            <mxPoint x="240" y="3670" as="targetPoint" />
          </mxGeometry>
        </mxCell>
        <mxCell id="rZtnTcQlP8RqxVRW8Rxv-209" value="1" style="ellipse;whiteSpace=wrap;html=1;aspect=fixed;fontColor=#FFFFFF;fillColor=#FF0000;fontStyle=1" vertex="1" parent="1">
          <mxGeometry x="20" y="3570" width="40" height="40" as="geometry" />
        </mxCell>
        <mxCell id="rZtnTcQlP8RqxVRW8Rxv-210" value="" style="endArrow=none;html=1;rounded=0;exitX=0.5;exitY=0;exitDx=0;exitDy=0;entryX=0;entryY=1;entryDx=0;entryDy=0;" edge="1" parent="1" source="rZtnTcQlP8RqxVRW8Rxv-209" target="rZtnTcQlP8RqxVRW8Rxv-188">
          <mxGeometry width="50" height="50" relative="1" as="geometry">
            <mxPoint x="-66" y="3576" as="sourcePoint" />
            <mxPoint x="80" y="3530" as="targetPoint" />
          </mxGeometry>
        </mxCell>
        <mxCell id="rZtnTcQlP8RqxVRW8Rxv-211" value="13.5" style="ellipse;whiteSpace=wrap;html=1;aspect=fixed;fontColor=#FFFFFF;fillColor=#FF0000;fontStyle=1" vertex="1" parent="1">
          <mxGeometry x="580" y="3500" width="40" height="40" as="geometry" />
        </mxCell>
        <mxCell id="rZtnTcQlP8RqxVRW8Rxv-212" value="" style="endArrow=none;html=1;rounded=0;exitX=0.5;exitY=0;exitDx=0;exitDy=0;entryX=1;entryY=1;entryDx=0;entryDy=0;" edge="1" parent="1" source="rZtnTcQlP8RqxVRW8Rxv-194" target="rZtnTcQlP8RqxVRW8Rxv-211">
          <mxGeometry width="50" height="50" relative="1" as="geometry">
            <mxPoint x="646" y="3626" as="sourcePoint" />
            <mxPoint x="590" y="3620" as="targetPoint" />
          </mxGeometry>
        </mxCell>
        <mxCell id="rZtnTcQlP8RqxVRW8Rxv-213" value="14.5" style="ellipse;whiteSpace=wrap;html=1;aspect=fixed;fontColor=#FFFFFF;fillColor=#FF0000;fontStyle=1" vertex="1" parent="1">
          <mxGeometry x="730" y="3610" width="40" height="40" as="geometry" />
        </mxCell>
        <mxCell id="rZtnTcQlP8RqxVRW8Rxv-214" value="" style="endArrow=none;html=1;rounded=0;exitX=0.5;exitY=0;exitDx=0;exitDy=0;entryX=1;entryY=1;entryDx=0;entryDy=0;" edge="1" parent="1" source="rZtnTcQlP8RqxVRW8Rxv-213" target="rZtnTcQlP8RqxVRW8Rxv-194">
          <mxGeometry width="50" height="50" relative="1" as="geometry">
            <mxPoint x="680" y="3560" as="sourcePoint" />
            <mxPoint x="624" y="3544" as="targetPoint" />
          </mxGeometry>
        </mxCell>
        <mxCell id="rZtnTcQlP8RqxVRW8Rxv-215" value="9" style="ellipse;whiteSpace=wrap;html=1;aspect=fixed;fontColor=#FFFFFF;fillColor=#FF0000;fontStyle=1" vertex="1" parent="1">
          <mxGeometry x="370" y="3740" width="40" height="40" as="geometry" />
        </mxCell>
        <mxCell id="rZtnTcQlP8RqxVRW8Rxv-216" value="" style="endArrow=none;html=1;rounded=0;entryX=0.5;entryY=0;entryDx=0;entryDy=0;exitX=1;exitY=1;exitDx=0;exitDy=0;" edge="1" parent="1" source="rZtnTcQlP8RqxVRW8Rxv-196" target="rZtnTcQlP8RqxVRW8Rxv-215">
          <mxGeometry width="50" height="50" relative="1" as="geometry">
            <mxPoint x="340" y="3700" as="sourcePoint" />
            <mxPoint x="386" y="3746" as="targetPoint" />
          </mxGeometry>
        </mxCell>
        <mxCell id="rZtnTcQlP8RqxVRW8Rxv-217" value="12" style="ellipse;whiteSpace=wrap;html=1;aspect=fixed;fillColor=#000000;strokeColor=#000000;fontColor=#FFFFFF;fontStyle=1" vertex="1" parent="1">
          <mxGeometry x="510" y="3910" width="40" height="40" as="geometry" />
        </mxCell>
        <mxCell id="rZtnTcQlP8RqxVRW8Rxv-218" value="5" style="ellipse;whiteSpace=wrap;html=1;aspect=fixed;fontColor=#FFFFFF;fillColor=#000000;fontStyle=1" vertex="1" parent="1">
          <mxGeometry x="250" y="3980" width="40" height="40" as="geometry" />
        </mxCell>
        <mxCell id="rZtnTcQlP8RqxVRW8Rxv-219" value="15" style="ellipse;whiteSpace=wrap;html=1;aspect=fixed;fontColor=#FFFFFF;fillColor=#000000;fontStyle=1" vertex="1" parent="1">
          <mxGeometry x="700" y="3990" width="40" height="40" as="geometry" />
        </mxCell>
        <mxCell id="rZtnTcQlP8RqxVRW8Rxv-220" value="10" style="ellipse;whiteSpace=wrap;html=1;aspect=fixed;fontColor=#FFFFFF;fillColor=#FF0000;fontStyle=1" vertex="1" parent="1">
          <mxGeometry x="350" y="4050" width="40" height="40" as="geometry" />
        </mxCell>
        <mxCell id="rZtnTcQlP8RqxVRW8Rxv-221" value="3" style="ellipse;whiteSpace=wrap;html=1;aspect=fixed;fontColor=#FFFFFF;fillColor=#000000;fontStyle=1" vertex="1" parent="1">
          <mxGeometry x="90" y="4050" width="40" height="40" as="geometry" />
        </mxCell>
        <mxCell id="rZtnTcQlP8RqxVRW8Rxv-222" value="17" style="ellipse;whiteSpace=wrap;html=1;aspect=fixed;fontColor=#FFFFFF;fillColor=#000000;fontStyle=1" vertex="1" parent="1">
          <mxGeometry x="790" y="4050" width="40" height="40" as="geometry" />
        </mxCell>
        <mxCell id="rZtnTcQlP8RqxVRW8Rxv-223" value="13" style="ellipse;whiteSpace=wrap;html=1;aspect=fixed;fontColor=#FFFFFF;fillColor=#000000;fontStyle=1" vertex="1" parent="1">
          <mxGeometry x="530" y="4100" width="40" height="40" as="geometry" />
        </mxCell>
        <mxCell id="rZtnTcQlP8RqxVRW8Rxv-224" value="7" style="ellipse;whiteSpace=wrap;html=1;aspect=fixed;fontColor=#FFFFFF;fillColor=#FF0000;fontStyle=1" vertex="1" parent="1">
          <mxGeometry x="260" y="4120" width="40" height="40" as="geometry" />
        </mxCell>
        <mxCell id="rZtnTcQlP8RqxVRW8Rxv-225" value="4" style="ellipse;whiteSpace=wrap;html=1;aspect=fixed;fontColor=#FFFFFF;fillColor=#FF0000;fontStyle=1" vertex="1" parent="1">
          <mxGeometry x="160" y="4120" width="40" height="40" as="geometry" />
        </mxCell>
        <mxCell id="rZtnTcQlP8RqxVRW8Rxv-226" value="11" style="ellipse;whiteSpace=wrap;html=1;aspect=fixed;fontColor=#FFFFFF;fillColor=#000000;fontStyle=1" vertex="1" parent="1">
          <mxGeometry x="435" y="4130" width="40" height="40" as="geometry" />
        </mxCell>
        <mxCell id="rZtnTcQlP8RqxVRW8Rxv-227" value="14" style="ellipse;whiteSpace=wrap;html=1;aspect=fixed;fontColor=#FFFFFF;fillColor=#000000;fontStyle=1" vertex="1" parent="1">
          <mxGeometry x="660" y="4100" width="40" height="40" as="geometry" />
        </mxCell>
        <mxCell id="rZtnTcQlP8RqxVRW8Rxv-228" value="6" style="ellipse;whiteSpace=wrap;html=1;aspect=fixed;fontColor=#FFFFFF;fillColor=#000000;fontStyle=1" vertex="1" parent="1">
          <mxGeometry x="200" y="4200" width="40" height="40" as="geometry" />
        </mxCell>
        <mxCell id="rZtnTcQlP8RqxVRW8Rxv-229" value="8" style="ellipse;whiteSpace=wrap;html=1;aspect=fixed;fontColor=#FFFFFF;fillColor=#000000;fontStyle=1" vertex="1" parent="1">
          <mxGeometry x="320" y="4210" width="40" height="40" as="geometry" />
        </mxCell>
        <mxCell id="rZtnTcQlP8RqxVRW8Rxv-230" value="" style="endArrow=none;html=1;rounded=0;entryX=0;entryY=1;entryDx=0;entryDy=0;exitX=0.5;exitY=0;exitDx=0;exitDy=0;" edge="1" parent="1" source="rZtnTcQlP8RqxVRW8Rxv-218" target="rZtnTcQlP8RqxVRW8Rxv-217">
          <mxGeometry width="50" height="50" relative="1" as="geometry">
            <mxPoint x="590" y="4150" as="sourcePoint" />
            <mxPoint x="640" y="4100" as="targetPoint" />
          </mxGeometry>
        </mxCell>
        <mxCell id="rZtnTcQlP8RqxVRW8Rxv-231" value="" style="endArrow=none;html=1;rounded=0;entryX=1;entryY=1;entryDx=0;entryDy=0;exitX=0.5;exitY=0;exitDx=0;exitDy=0;" edge="1" parent="1" source="rZtnTcQlP8RqxVRW8Rxv-219" target="rZtnTcQlP8RqxVRW8Rxv-217">
          <mxGeometry width="50" height="50" relative="1" as="geometry">
            <mxPoint x="630" y="3990" as="sourcePoint" />
            <mxPoint x="526" y="3954" as="targetPoint" />
          </mxGeometry>
        </mxCell>
        <mxCell id="rZtnTcQlP8RqxVRW8Rxv-232" value="" style="endArrow=none;html=1;rounded=0;exitX=0.5;exitY=0;exitDx=0;exitDy=0;entryX=0;entryY=1;entryDx=0;entryDy=0;" edge="1" parent="1" source="rZtnTcQlP8RqxVRW8Rxv-221" target="rZtnTcQlP8RqxVRW8Rxv-218">
          <mxGeometry width="50" height="50" relative="1" as="geometry">
            <mxPoint x="184" y="4050" as="sourcePoint" />
            <mxPoint x="257" y="4030" as="targetPoint" />
          </mxGeometry>
        </mxCell>
        <mxCell id="rZtnTcQlP8RqxVRW8Rxv-233" value="" style="endArrow=none;html=1;rounded=0;entryX=1;entryY=1;entryDx=0;entryDy=0;exitX=0.5;exitY=0;exitDx=0;exitDy=0;" edge="1" parent="1" source="rZtnTcQlP8RqxVRW8Rxv-220" target="rZtnTcQlP8RqxVRW8Rxv-218">
          <mxGeometry width="50" height="50" relative="1" as="geometry">
            <mxPoint x="178" y="4053" as="sourcePoint" />
            <mxPoint x="274" y="4018" as="targetPoint" />
            <Array as="points">
              <mxPoint x="320" y="4030" />
            </Array>
          </mxGeometry>
        </mxCell>
        <mxCell id="rZtnTcQlP8RqxVRW8Rxv-234" value="" style="endArrow=none;html=1;rounded=0;entryX=1;entryY=1;entryDx=0;entryDy=0;exitX=0.5;exitY=0;exitDx=0;exitDy=0;" edge="1" parent="1" source="rZtnTcQlP8RqxVRW8Rxv-222" target="rZtnTcQlP8RqxVRW8Rxv-219">
          <mxGeometry width="50" height="50" relative="1" as="geometry">
            <mxPoint x="812" y="4060" as="sourcePoint" />
            <mxPoint x="740" y="4008" as="targetPoint" />
          </mxGeometry>
        </mxCell>
        <mxCell id="rZtnTcQlP8RqxVRW8Rxv-235" value="" style="endArrow=none;html=1;rounded=0;entryX=0.5;entryY=0;entryDx=0;entryDy=0;exitX=0;exitY=1;exitDx=0;exitDy=0;" edge="1" parent="1" source="rZtnTcQlP8RqxVRW8Rxv-244" target="rZtnTcQlP8RqxVRW8Rxv-223">
          <mxGeometry width="50" height="50" relative="1" as="geometry">
            <mxPoint x="816" y="4146" as="sourcePoint" />
            <mxPoint x="720" y="4080" as="targetPoint" />
          </mxGeometry>
        </mxCell>
        <mxCell id="rZtnTcQlP8RqxVRW8Rxv-236" value="" style="endArrow=none;html=1;rounded=0;entryX=0;entryY=1;entryDx=0;entryDy=0;exitX=0.5;exitY=0;exitDx=0;exitDy=0;" edge="1" parent="1" source="rZtnTcQlP8RqxVRW8Rxv-244" target="rZtnTcQlP8RqxVRW8Rxv-219">
          <mxGeometry width="50" height="50" relative="1" as="geometry">
            <mxPoint x="620" y="4050" as="sourcePoint" />
            <mxPoint x="595.8578643762689" y="4024.142135623731" as="targetPoint" />
          </mxGeometry>
        </mxCell>
        <mxCell id="rZtnTcQlP8RqxVRW8Rxv-237" value="" style="endArrow=none;html=1;rounded=0;entryX=1;entryY=1;entryDx=0;entryDy=0;exitX=0.5;exitY=0;exitDx=0;exitDy=0;" edge="1" parent="1" source="rZtnTcQlP8RqxVRW8Rxv-225" target="rZtnTcQlP8RqxVRW8Rxv-221">
          <mxGeometry width="50" height="50" relative="1" as="geometry">
            <mxPoint x="200" y="4112" as="sourcePoint" />
            <mxPoint x="128" y="4060" as="targetPoint" />
            <Array as="points">
              <mxPoint x="150" y="4100" />
            </Array>
          </mxGeometry>
        </mxCell>
        <mxCell id="rZtnTcQlP8RqxVRW8Rxv-238" value="" style="endArrow=none;html=1;rounded=0;entryX=0;entryY=1;entryDx=0;entryDy=0;exitX=0.5;exitY=0;exitDx=0;exitDy=0;" edge="1" parent="1" source="rZtnTcQlP8RqxVRW8Rxv-224" target="rZtnTcQlP8RqxVRW8Rxv-220">
          <mxGeometry width="50" height="50" relative="1" as="geometry">
            <mxPoint x="350" y="4152" as="sourcePoint" />
            <mxPoint x="370" y="4090" as="targetPoint" />
          </mxGeometry>
        </mxCell>
        <mxCell id="rZtnTcQlP8RqxVRW8Rxv-239" value="" style="endArrow=none;html=1;rounded=0;entryX=1;entryY=1;entryDx=0;entryDy=0;exitX=0.5;exitY=0;exitDx=0;exitDy=0;" edge="1" parent="1" source="rZtnTcQlP8RqxVRW8Rxv-226" target="rZtnTcQlP8RqxVRW8Rxv-220">
          <mxGeometry width="50" height="50" relative="1" as="geometry">
            <mxPoint x="400" y="4160" as="sourcePoint" />
            <mxPoint x="430" y="4110" as="targetPoint" />
          </mxGeometry>
        </mxCell>
        <mxCell id="rZtnTcQlP8RqxVRW8Rxv-240" value="" style="endArrow=none;html=1;rounded=0;entryX=0.5;entryY=0;entryDx=0;entryDy=0;exitX=0;exitY=1;exitDx=0;exitDy=0;" edge="1" parent="1" source="rZtnTcQlP8RqxVRW8Rxv-224" target="rZtnTcQlP8RqxVRW8Rxv-228">
          <mxGeometry width="50" height="50" relative="1" as="geometry">
            <mxPoint x="290" y="4130" as="sourcePoint" />
            <mxPoint x="320" y="4080" as="targetPoint" />
          </mxGeometry>
        </mxCell>
        <mxCell id="rZtnTcQlP8RqxVRW8Rxv-241" value="" style="endArrow=none;html=1;rounded=0;entryX=0.5;entryY=0;entryDx=0;entryDy=0;exitX=1;exitY=1;exitDx=0;exitDy=0;" edge="1" parent="1" source="rZtnTcQlP8RqxVRW8Rxv-224" target="rZtnTcQlP8RqxVRW8Rxv-229">
          <mxGeometry width="50" height="50" relative="1" as="geometry">
            <mxPoint x="276" y="4174" as="sourcePoint" />
            <mxPoint x="250" y="4220" as="targetPoint" />
          </mxGeometry>
        </mxCell>
        <mxCell id="rZtnTcQlP8RqxVRW8Rxv-242" value="1" style="ellipse;whiteSpace=wrap;html=1;aspect=fixed;fontColor=#FFFFFF;fillColor=#FF0000;fontStyle=1" vertex="1" parent="1">
          <mxGeometry x="30" y="4120" width="40" height="40" as="geometry" />
        </mxCell>
        <mxCell id="rZtnTcQlP8RqxVRW8Rxv-243" value="" style="endArrow=none;html=1;rounded=0;exitX=0.5;exitY=0;exitDx=0;exitDy=0;entryX=0;entryY=1;entryDx=0;entryDy=0;" edge="1" parent="1" source="rZtnTcQlP8RqxVRW8Rxv-242" target="rZtnTcQlP8RqxVRW8Rxv-221">
          <mxGeometry width="50" height="50" relative="1" as="geometry">
            <mxPoint x="-56" y="4126" as="sourcePoint" />
            <mxPoint x="90" y="4080" as="targetPoint" />
          </mxGeometry>
        </mxCell>
        <mxCell id="rZtnTcQlP8RqxVRW8Rxv-244" value="13.5" style="ellipse;whiteSpace=wrap;html=1;aspect=fixed;fontColor=#FFFFFF;fillColor=#FF0000;fontStyle=1" vertex="1" parent="1">
          <mxGeometry x="590" y="4050" width="40" height="40" as="geometry" />
        </mxCell>
        <mxCell id="rZtnTcQlP8RqxVRW8Rxv-245" value="" style="endArrow=none;html=1;rounded=0;exitX=0.5;exitY=0;exitDx=0;exitDy=0;entryX=1;entryY=1;entryDx=0;entryDy=0;" edge="1" parent="1" source="rZtnTcQlP8RqxVRW8Rxv-227" target="rZtnTcQlP8RqxVRW8Rxv-244">
          <mxGeometry width="50" height="50" relative="1" as="geometry">
            <mxPoint x="656" y="4176" as="sourcePoint" />
            <mxPoint x="600" y="4170" as="targetPoint" />
          </mxGeometry>
        </mxCell>
        <mxCell id="rZtnTcQlP8RqxVRW8Rxv-246" value="14.5" style="ellipse;whiteSpace=wrap;html=1;aspect=fixed;fontColor=#FFFFFF;fillColor=#FF0000;fontStyle=1" vertex="1" parent="1">
          <mxGeometry x="740" y="4160" width="40" height="40" as="geometry" />
        </mxCell>
        <mxCell id="rZtnTcQlP8RqxVRW8Rxv-247" value="" style="endArrow=none;html=1;rounded=0;exitX=0.5;exitY=0;exitDx=0;exitDy=0;entryX=1;entryY=1;entryDx=0;entryDy=0;" edge="1" parent="1" source="rZtnTcQlP8RqxVRW8Rxv-246" target="rZtnTcQlP8RqxVRW8Rxv-227">
          <mxGeometry width="50" height="50" relative="1" as="geometry">
            <mxPoint x="690" y="4110" as="sourcePoint" />
            <mxPoint x="634" y="4094" as="targetPoint" />
          </mxGeometry>
        </mxCell>
        <mxCell id="rZtnTcQlP8RqxVRW8Rxv-248" value="9" style="ellipse;whiteSpace=wrap;html=1;aspect=fixed;fontColor=#FFFFFF;fillColor=#FF0000;fontStyle=1" vertex="1" parent="1">
          <mxGeometry x="380" y="4290" width="40" height="40" as="geometry" />
        </mxCell>
        <mxCell id="rZtnTcQlP8RqxVRW8Rxv-249" value="" style="endArrow=none;html=1;rounded=0;entryX=0.5;entryY=0;entryDx=0;entryDy=0;exitX=1;exitY=1;exitDx=0;exitDy=0;" edge="1" parent="1" source="rZtnTcQlP8RqxVRW8Rxv-229" target="rZtnTcQlP8RqxVRW8Rxv-248">
          <mxGeometry width="50" height="50" relative="1" as="geometry">
            <mxPoint x="350" y="4250" as="sourcePoint" />
            <mxPoint x="396" y="4296" as="targetPoint" />
          </mxGeometry>
        </mxCell>
        <mxCell id="rZtnTcQlP8RqxVRW8Rxv-250" value="12" style="ellipse;whiteSpace=wrap;html=1;aspect=fixed;fillColor=#000000;strokeColor=#000000;fontColor=#FFFFFF;fontStyle=1" vertex="1" parent="1">
          <mxGeometry x="510" y="4440" width="40" height="40" as="geometry" />
        </mxCell>
        <mxCell id="rZtnTcQlP8RqxVRW8Rxv-251" value="5" style="ellipse;whiteSpace=wrap;html=1;aspect=fixed;fontColor=#FFFFFF;fillColor=#FF0000;fontStyle=1" vertex="1" parent="1">
          <mxGeometry x="150" y="4580" width="40" height="40" as="geometry" />
        </mxCell>
        <mxCell id="rZtnTcQlP8RqxVRW8Rxv-252" value="15" style="ellipse;whiteSpace=wrap;html=1;aspect=fixed;fontColor=#FFFFFF;fillColor=#000000;fontStyle=1" vertex="1" parent="1">
          <mxGeometry x="700" y="4520" width="40" height="40" as="geometry" />
        </mxCell>
        <mxCell id="rZtnTcQlP8RqxVRW8Rxv-253" value="10" style="ellipse;whiteSpace=wrap;html=1;aspect=fixed;fontColor=#FFFFFF;fillColor=#FF0000;fontStyle=1" vertex="1" parent="1">
          <mxGeometry x="360" y="4580" width="40" height="40" as="geometry" />
        </mxCell>
        <mxCell id="rZtnTcQlP8RqxVRW8Rxv-254" value="3" style="ellipse;whiteSpace=wrap;html=1;aspect=fixed;fontColor=#FFFFFF;fillColor=#000000;fontStyle=1" vertex="1" parent="1">
          <mxGeometry x="80" y="4630" width="40" height="40" as="geometry" />
        </mxCell>
        <mxCell id="rZtnTcQlP8RqxVRW8Rxv-255" value="17" style="ellipse;whiteSpace=wrap;html=1;aspect=fixed;fontColor=#FFFFFF;fillColor=#000000;fontStyle=1" vertex="1" parent="1">
          <mxGeometry x="790" y="4580" width="40" height="40" as="geometry" />
        </mxCell>
        <mxCell id="rZtnTcQlP8RqxVRW8Rxv-256" value="13" style="ellipse;whiteSpace=wrap;html=1;aspect=fixed;fontColor=#FFFFFF;fillColor=#000000;fontStyle=1" vertex="1" parent="1">
          <mxGeometry x="530" y="4630" width="40" height="40" as="geometry" />
        </mxCell>
        <mxCell id="rZtnTcQlP8RqxVRW8Rxv-257" value="7" style="ellipse;whiteSpace=wrap;html=1;aspect=fixed;fontColor=#FFFFFF;fillColor=#000000;fontStyle=1" vertex="1" parent="1">
          <mxGeometry x="260" y="4520" width="40" height="40" as="geometry" />
        </mxCell>
        <mxCell id="rZtnTcQlP8RqxVRW8Rxv-258" value="4" style="ellipse;whiteSpace=wrap;html=1;aspect=fixed;fontColor=#FFFFFF;fillColor=#FF0000;fontStyle=1" vertex="1" parent="1">
          <mxGeometry x="130" y="4690" width="40" height="40" as="geometry" />
        </mxCell>
        <mxCell id="rZtnTcQlP8RqxVRW8Rxv-259" value="11" style="ellipse;whiteSpace=wrap;html=1;aspect=fixed;fontColor=#FFFFFF;fillColor=#000000;fontStyle=1" vertex="1" parent="1">
          <mxGeometry x="430" y="4630" width="40" height="40" as="geometry" />
        </mxCell>
        <mxCell id="rZtnTcQlP8RqxVRW8Rxv-260" value="14" style="ellipse;whiteSpace=wrap;html=1;aspect=fixed;fontColor=#FFFFFF;fillColor=#000000;fontStyle=1" vertex="1" parent="1">
          <mxGeometry x="660" y="4630" width="40" height="40" as="geometry" />
        </mxCell>
        <mxCell id="rZtnTcQlP8RqxVRW8Rxv-261" value="6" style="ellipse;whiteSpace=wrap;html=1;aspect=fixed;fontColor=#FFFFFF;fillColor=#000000;fontStyle=1" vertex="1" parent="1">
          <mxGeometry x="220" y="4630" width="40" height="40" as="geometry" />
        </mxCell>
        <mxCell id="rZtnTcQlP8RqxVRW8Rxv-262" value="8" style="ellipse;whiteSpace=wrap;html=1;aspect=fixed;fontColor=#FFFFFF;fillColor=#000000;fontStyle=1" vertex="1" parent="1">
          <mxGeometry x="290" y="4630" width="40" height="40" as="geometry" />
        </mxCell>
        <mxCell id="rZtnTcQlP8RqxVRW8Rxv-264" value="" style="endArrow=none;html=1;rounded=0;entryX=1;entryY=1;entryDx=0;entryDy=0;exitX=0.5;exitY=0;exitDx=0;exitDy=0;" edge="1" parent="1" source="rZtnTcQlP8RqxVRW8Rxv-252" target="rZtnTcQlP8RqxVRW8Rxv-250">
          <mxGeometry width="50" height="50" relative="1" as="geometry">
            <mxPoint x="630" y="4520" as="sourcePoint" />
            <mxPoint x="526" y="4484" as="targetPoint" />
          </mxGeometry>
        </mxCell>
        <mxCell id="rZtnTcQlP8RqxVRW8Rxv-265" value="" style="endArrow=none;html=1;rounded=0;exitX=0.5;exitY=0;exitDx=0;exitDy=0;entryX=0;entryY=1;entryDx=0;entryDy=0;" edge="1" parent="1" source="rZtnTcQlP8RqxVRW8Rxv-254" target="rZtnTcQlP8RqxVRW8Rxv-251">
          <mxGeometry width="50" height="50" relative="1" as="geometry">
            <mxPoint x="184" y="4710" as="sourcePoint" />
            <mxPoint x="257" y="4690" as="targetPoint" />
          </mxGeometry>
        </mxCell>
        <mxCell id="rZtnTcQlP8RqxVRW8Rxv-267" value="" style="endArrow=none;html=1;rounded=0;entryX=1;entryY=1;entryDx=0;entryDy=0;exitX=0.5;exitY=0;exitDx=0;exitDy=0;" edge="1" parent="1" source="rZtnTcQlP8RqxVRW8Rxv-255" target="rZtnTcQlP8RqxVRW8Rxv-252">
          <mxGeometry width="50" height="50" relative="1" as="geometry">
            <mxPoint x="812" y="4590" as="sourcePoint" />
            <mxPoint x="740" y="4538" as="targetPoint" />
          </mxGeometry>
        </mxCell>
        <mxCell id="rZtnTcQlP8RqxVRW8Rxv-268" value="" style="endArrow=none;html=1;rounded=0;entryX=0.5;entryY=0;entryDx=0;entryDy=0;exitX=0;exitY=1;exitDx=0;exitDy=0;" edge="1" parent="1" source="rZtnTcQlP8RqxVRW8Rxv-277" target="rZtnTcQlP8RqxVRW8Rxv-256">
          <mxGeometry width="50" height="50" relative="1" as="geometry">
            <mxPoint x="816" y="4676" as="sourcePoint" />
            <mxPoint x="720" y="4610" as="targetPoint" />
          </mxGeometry>
        </mxCell>
        <mxCell id="rZtnTcQlP8RqxVRW8Rxv-269" value="" style="endArrow=none;html=1;rounded=0;entryX=0;entryY=1;entryDx=0;entryDy=0;exitX=0.5;exitY=0;exitDx=0;exitDy=0;" edge="1" parent="1" source="rZtnTcQlP8RqxVRW8Rxv-277" target="rZtnTcQlP8RqxVRW8Rxv-252">
          <mxGeometry width="50" height="50" relative="1" as="geometry">
            <mxPoint x="620" y="4580" as="sourcePoint" />
            <mxPoint x="595.8578643762689" y="4554.1421356237315" as="targetPoint" />
          </mxGeometry>
        </mxCell>
        <mxCell id="rZtnTcQlP8RqxVRW8Rxv-272" value="" style="endArrow=none;html=1;rounded=0;entryX=1;entryY=1;entryDx=0;entryDy=0;exitX=0.5;exitY=0;exitDx=0;exitDy=0;" edge="1" parent="1" source="rZtnTcQlP8RqxVRW8Rxv-259" target="rZtnTcQlP8RqxVRW8Rxv-253">
          <mxGeometry width="50" height="50" relative="1" as="geometry">
            <mxPoint x="400" y="4690" as="sourcePoint" />
            <mxPoint x="430" y="4640" as="targetPoint" />
          </mxGeometry>
        </mxCell>
        <mxCell id="rZtnTcQlP8RqxVRW8Rxv-275" value="1" style="ellipse;whiteSpace=wrap;html=1;aspect=fixed;fontColor=#FFFFFF;fillColor=#FF0000;fontStyle=1" vertex="1" parent="1">
          <mxGeometry x="30" y="4690" width="40" height="40" as="geometry" />
        </mxCell>
        <mxCell id="rZtnTcQlP8RqxVRW8Rxv-276" value="" style="endArrow=none;html=1;rounded=0;exitX=0.5;exitY=0;exitDx=0;exitDy=0;entryX=0;entryY=1;entryDx=0;entryDy=0;" edge="1" parent="1" source="rZtnTcQlP8RqxVRW8Rxv-275" target="rZtnTcQlP8RqxVRW8Rxv-254">
          <mxGeometry width="50" height="50" relative="1" as="geometry">
            <mxPoint x="-56" y="4786" as="sourcePoint" />
            <mxPoint x="90" y="4740" as="targetPoint" />
          </mxGeometry>
        </mxCell>
        <mxCell id="rZtnTcQlP8RqxVRW8Rxv-277" value="13.5" style="ellipse;whiteSpace=wrap;html=1;aspect=fixed;fontColor=#FFFFFF;fillColor=#FF0000;fontStyle=1" vertex="1" parent="1">
          <mxGeometry x="590" y="4580" width="40" height="40" as="geometry" />
        </mxCell>
        <mxCell id="rZtnTcQlP8RqxVRW8Rxv-278" value="" style="endArrow=none;html=1;rounded=0;exitX=0.5;exitY=0;exitDx=0;exitDy=0;entryX=1;entryY=1;entryDx=0;entryDy=0;" edge="1" parent="1" source="rZtnTcQlP8RqxVRW8Rxv-260" target="rZtnTcQlP8RqxVRW8Rxv-277">
          <mxGeometry width="50" height="50" relative="1" as="geometry">
            <mxPoint x="656" y="4706" as="sourcePoint" />
            <mxPoint x="600" y="4700" as="targetPoint" />
          </mxGeometry>
        </mxCell>
        <mxCell id="rZtnTcQlP8RqxVRW8Rxv-279" value="14.5" style="ellipse;whiteSpace=wrap;html=1;aspect=fixed;fontColor=#FFFFFF;fillColor=#FF0000;fontStyle=1" vertex="1" parent="1">
          <mxGeometry x="740" y="4690" width="40" height="40" as="geometry" />
        </mxCell>
        <mxCell id="rZtnTcQlP8RqxVRW8Rxv-280" value="" style="endArrow=none;html=1;rounded=0;exitX=0.5;exitY=0;exitDx=0;exitDy=0;entryX=1;entryY=1;entryDx=0;entryDy=0;" edge="1" parent="1" source="rZtnTcQlP8RqxVRW8Rxv-279" target="rZtnTcQlP8RqxVRW8Rxv-260">
          <mxGeometry width="50" height="50" relative="1" as="geometry">
            <mxPoint x="690" y="4640" as="sourcePoint" />
            <mxPoint x="634" y="4624" as="targetPoint" />
          </mxGeometry>
        </mxCell>
        <mxCell id="rZtnTcQlP8RqxVRW8Rxv-281" value="9" style="ellipse;whiteSpace=wrap;html=1;aspect=fixed;fontColor=#FFFFFF;fillColor=#FF0000;fontStyle=1" vertex="1" parent="1">
          <mxGeometry x="330" y="4690" width="40" height="40" as="geometry" />
        </mxCell>
        <mxCell id="rZtnTcQlP8RqxVRW8Rxv-282" value="" style="endArrow=none;html=1;rounded=0;entryX=0.5;entryY=0;entryDx=0;entryDy=0;exitX=1;exitY=1;exitDx=0;exitDy=0;" edge="1" parent="1" source="rZtnTcQlP8RqxVRW8Rxv-262" target="rZtnTcQlP8RqxVRW8Rxv-281">
          <mxGeometry width="50" height="50" relative="1" as="geometry">
            <mxPoint x="340" y="4640" as="sourcePoint" />
            <mxPoint x="386" y="4686" as="targetPoint" />
          </mxGeometry>
        </mxCell>
        <mxCell id="rZtnTcQlP8RqxVRW8Rxv-283" value="Add 1" style="text;html=1;align=center;verticalAlign=middle;whiteSpace=wrap;rounded=0;fontSize=18;" vertex="1" parent="1">
          <mxGeometry x="40" y="465" width="60" height="30" as="geometry" />
        </mxCell>
        <mxCell id="rZtnTcQlP8RqxVRW8Rxv-284" value="Add 13.5" style="text;html=1;align=center;verticalAlign=middle;whiteSpace=wrap;rounded=0;fontSize=18;" vertex="1" parent="1">
          <mxGeometry x="40" y="1140" width="80" height="30" as="geometry" />
        </mxCell>
        <mxCell id="rZtnTcQlP8RqxVRW8Rxv-285" value="" style="ellipse;whiteSpace=wrap;html=1;gradientColor=default;fillColor=none;" vertex="1" parent="1">
          <mxGeometry x="500" y="1350" width="200" height="170" as="geometry" />
        </mxCell>
        <mxCell id="rZtnTcQlP8RqxVRW8Rxv-286" value="" style="ellipse;whiteSpace=wrap;html=1;gradientColor=default;fillColor=none;" vertex="1" parent="1">
          <mxGeometry x="470" y="1690" width="200" height="170" as="geometry" />
        </mxCell>
        <mxCell id="rZtnTcQlP8RqxVRW8Rxv-287" value="Add 14.5" style="text;html=1;align=center;verticalAlign=middle;whiteSpace=wrap;rounded=0;fontSize=18;" vertex="1" parent="1">
          <mxGeometry x="40" y="2260" width="80" height="30" as="geometry" />
        </mxCell>
        <mxCell id="rZtnTcQlP8RqxVRW8Rxv-288" value="" style="ellipse;whiteSpace=wrap;html=1;gradientColor=default;fillColor=none;" vertex="1" parent="1">
          <mxGeometry x="600" y="2420" width="200" height="170" as="geometry" />
        </mxCell>
        <mxCell id="rZtnTcQlP8RqxVRW8Rxv-289" value="" style="ellipse;whiteSpace=wrap;html=1;gradientColor=default;fillColor=none;" vertex="1" parent="1">
          <mxGeometry x="505" y="2800" width="290" height="240" as="geometry" />
        </mxCell>
        <mxCell id="rZtnTcQlP8RqxVRW8Rxv-290" value="Add 9" style="text;html=1;align=center;verticalAlign=middle;whiteSpace=wrap;rounded=0;fontSize=18;" vertex="1" parent="1">
          <mxGeometry x="40" y="3360" width="80" height="30" as="geometry" />
        </mxCell>
        <mxCell id="rZtnTcQlP8RqxVRW8Rxv-291" value="" style="ellipse;whiteSpace=wrap;html=1;gradientColor=default;fillColor=none;" vertex="1" parent="1">
          <mxGeometry x="250" y="3630" width="215" height="170" as="geometry" />
        </mxCell>
        <mxCell id="rZtnTcQlP8RqxVRW8Rxv-292" value="" style="ellipse;whiteSpace=wrap;html=1;gradientColor=default;fillColor=none;" vertex="1" parent="1">
          <mxGeometry x="220" y="4030" width="215" height="170" as="geometry" />
        </mxCell>
        <mxCell id="rZtnTcQlP8RqxVRW8Rxv-293" value="" style="endArrow=none;html=1;rounded=0;entryX=0.5;entryY=0;entryDx=0;entryDy=0;exitX=0;exitY=1;exitDx=0;exitDy=0;" edge="1" parent="1" source="rZtnTcQlP8RqxVRW8Rxv-250" target="rZtnTcQlP8RqxVRW8Rxv-257">
          <mxGeometry width="50" height="50" relative="1" as="geometry">
            <mxPoint x="294" y="4554" as="sourcePoint" />
            <mxPoint x="340" y="4610" as="targetPoint" />
          </mxGeometry>
        </mxCell>
        <mxCell id="rZtnTcQlP8RqxVRW8Rxv-295" value="" style="endArrow=none;html=1;rounded=0;entryX=0.5;entryY=0;entryDx=0;entryDy=0;exitX=1;exitY=1;exitDx=0;exitDy=0;" edge="1" parent="1" source="rZtnTcQlP8RqxVRW8Rxv-257" target="rZtnTcQlP8RqxVRW8Rxv-253">
          <mxGeometry width="50" height="50" relative="1" as="geometry">
            <mxPoint x="294" y="4554" as="sourcePoint" />
            <mxPoint x="340" y="4610" as="targetPoint" />
          </mxGeometry>
        </mxCell>
        <mxCell id="rZtnTcQlP8RqxVRW8Rxv-296" value="" style="endArrow=none;html=1;rounded=0;entryX=0.5;entryY=0;entryDx=0;entryDy=0;exitX=0;exitY=1;exitDx=0;exitDy=0;" edge="1" parent="1" source="rZtnTcQlP8RqxVRW8Rxv-257" target="rZtnTcQlP8RqxVRW8Rxv-251">
          <mxGeometry width="50" height="50" relative="1" as="geometry">
            <mxPoint x="294" y="4554" as="sourcePoint" />
            <mxPoint x="380" y="4590" as="targetPoint" />
          </mxGeometry>
        </mxCell>
        <mxCell id="rZtnTcQlP8RqxVRW8Rxv-297" value="" style="endArrow=none;html=1;rounded=0;exitX=0.5;exitY=0;exitDx=0;exitDy=0;entryX=1;entryY=1;entryDx=0;entryDy=0;" edge="1" parent="1" source="rZtnTcQlP8RqxVRW8Rxv-261" target="rZtnTcQlP8RqxVRW8Rxv-251">
          <mxGeometry width="50" height="50" relative="1" as="geometry">
            <mxPoint x="120" y="4720" as="sourcePoint" />
            <mxPoint x="206" y="4634" as="targetPoint" />
          </mxGeometry>
        </mxCell>
        <mxCell id="rZtnTcQlP8RqxVRW8Rxv-298" value="" style="endArrow=none;html=1;rounded=0;entryX=0.5;entryY=0;entryDx=0;entryDy=0;exitX=0;exitY=1;exitDx=0;exitDy=0;" edge="1" parent="1" source="rZtnTcQlP8RqxVRW8Rxv-253" target="rZtnTcQlP8RqxVRW8Rxv-262">
          <mxGeometry width="50" height="50" relative="1" as="geometry">
            <mxPoint x="294" y="4554" as="sourcePoint" />
            <mxPoint x="380" y="4590" as="targetPoint" />
          </mxGeometry>
        </mxCell>
        <mxCell id="rZtnTcQlP8RqxVRW8Rxv-304" value="" style="endArrow=none;html=1;rounded=0;exitX=1;exitY=1;exitDx=0;exitDy=0;entryX=0.5;entryY=0;entryDx=0;entryDy=0;" edge="1" parent="1" source="rZtnTcQlP8RqxVRW8Rxv-254" target="rZtnTcQlP8RqxVRW8Rxv-258">
          <mxGeometry width="50" height="50" relative="1" as="geometry">
            <mxPoint x="110" y="4640" as="sourcePoint" />
            <mxPoint x="166" y="4624" as="targetPoint" />
          </mxGeometry>
        </mxCell>
      </root>
    </mxGraphModel>
  </diagram>
</mxfile>
